<svg xmlns="http://www.w3.org/2000/svg" xmlns:xlink="http://www.w3.org/1999/xlink" viewBox="0 0 2050.5 1367"><defs><style>.cls-1{fill:none;}.cls-2{isolation:isolate;}.cls-3{fill:#0f054c;}.cls-4,.cls-8{opacity:0.9;}.cls-25,.cls-4{mix-blend-mode:lighten;}.cls-4{fill:url(#_ÂÁ_Ï_ÌÌ_È_ËÂÌÚ_11);}.cls-24,.cls-5{opacity:0.8;}.cls-5{fill:url(#_ÂÁ_Ï_ÌÌ_È_ËÂÌÚ_19);}.cls-10,.cls-6{fill:#42e8e0;}.cls-6{opacity:0.1;}.cls-7{opacity:0.67;}.cls-9{fill:#080344;}.cls-11{fill:url(#_ÂÁ_Ï_ÌÌ_È_ËÂÌÚ_2);}.cls-12{fill:url(#_ÂÁ_Ï_ÌÌ_È_ËÂÌÚ_24);}.cls-13{fill:#24126a;}.cls-14{opacity:0.51;}.cls-15{fill:#453c9e;}.cls-16{fill:url(#_ÂÁ_Ï_ÌÌ_È_ËÂÌÚ_24-2);}.cls-17{fill:url(#_ÂÁ_Ï_ÌÌ_È_ËÂÌÚ_2-2);}.cls-18{fill:#fff;}.cls-19{opacity:0.15;}.cls-20{clip-path:url(#clip-path);}.cls-21{fill:url(#_ÂÁ_Ï_ÌÌ_È_ËÂÌÚ_24-3);}.cls-22{fill:url(#_ÂÁ_Ï_ÌÌ_È_ËÂÌÚ_2-3);}.cls-23,.cls-25{opacity:0.5;}.cls-25{fill:url(#_ÂÁ_Ï_ÌÌ_È_ËÂÌÚ_21);}</style><radialGradient id="_ÂÁ_Ï_ÌÌ_È_ËÂÌÚ_11" cx="870.83" cy="735.9" r="1086.36" gradientTransform="matrix(1, 0, 0, -1, -55.19, 1367)" gradientUnits="userSpaceOnUse"><stop offset="0" stop-color="#5761d7"/><stop offset="0.03" stop-color="#525bce"/><stop offset="0.18" stop-color="#3e41a6"/><stop offset="0.33" stop-color="#2d2b85"/><stop offset="0.48" stop-color="#201a6c"/><stop offset="0.64" stop-color="#160e5a"/><stop offset="0.81" stop-color="#11074f"/><stop offset="1" stop-color="#0f054c"/></radialGradient><radialGradient id="_ÂÁ_Ï_ÌÌ_È_ËÂÌÚ_19" cx="10.76" cy="319.86" r="1501.45" gradientTransform="matrix(-1, 0, 0, 1, 2105.69, 0)" gradientUnits="userSpaceOnUse"><stop offset="0" stop-color="#ff2c9c"/><stop offset="0.03" stop-color="#f62f9f"/><stop offset="0.2" stop-color="#c63eb0"/><stop offset="0.37" stop-color="#9e4bbe"/><stop offset="0.54" stop-color="#7f54c9"/><stop offset="0.7" stop-color="#695bd1"/><stop offset="0.86" stop-color="#5c60d5"/><stop offset="1" stop-color="#5761d7"/></radialGradient><linearGradient id="_ÂÁ_Ï_ÌÌ_È_ËÂÌÚ_2" x1="251.66" y1="598.71" x2="785.9" y2="598.71" gradientTransform="matrix(-1, 0, 0, 1, 2066.4, 0)" gradientUnits="userSpaceOnUse"><stop offset="0" stop-color="#c0bff6"/><stop offset="0.29" stop-color="#c5c4f7"/><stop offset="0.64" stop-color="#d3d2f9"/><stop offset="1" stop-color="#e9e9fd"/></linearGradient><linearGradient id="_ÂÁ_Ï_ÌÌ_È_ËÂÌÚ_24" x1="251.66" y1="735.72" x2="343.4" y2="735.72" gradientTransform="matrix(-1, 0, 0, 1, 2066.4, 0)" gradientUnits="userSpaceOnUse"><stop offset="0" stop-color="#5761d7"/><stop offset="0.18" stop-color="#5c66d9"/><stop offset="0.39" stop-color="#6a73df"/><stop offset="0.61" stop-color="#8289e8"/><stop offset="0.85" stop-color="#a3a7f5"/><stop offset="1" stop-color="#bcbeff"/></linearGradient><linearGradient id="_ÂÁ_Ï_ÌÌ_È_ËÂÌÚ_24-2" x1="323.24" y1="885.2" x2="1077.76" y2="885.2" xlink:href="#_ÂÁ_Ï_ÌÌ_È_ËÂÌÚ_24"/><linearGradient id="_ÂÁ_Ï_ÌÌ_È_ËÂÌÚ_2-2" x1="-11.97" y1="864.57" x2="1099.84" y2="864.57" xlink:href="#_ÂÁ_Ï_ÌÌ_È_ËÂÌÚ_2"/><clipPath id="clip-path"><polygon class="cls-1" points="1802 561.81 1337.37 293.68 1278.99 640.76 1743.32 908.73 1802 561.81"/></clipPath><linearGradient id="_ÂÁ_Ï_ÌÌ_È_ËÂÌÚ_24-3" x1="33.1" y1="719.15" x2="787.62" y2="719.15" xlink:href="#_ÂÁ_Ï_ÌÌ_È_ËÂÌÚ_24"/><linearGradient id="_ÂÁ_Ï_ÌÌ_È_ËÂÌÚ_2-3" x1="286.62" y1="698.52" x2="1041.54" y2="698.52" xlink:href="#_ÂÁ_Ï_ÌÌ_È_ËÂÌÚ_2"/><linearGradient id="_ÂÁ_Ï_ÌÌ_È_ËÂÌÚ_21" x1="1735.78" y1="622.55" x2="1895.15" y2="690.73" gradientTransform="translate(-148.43)" gradientUnits="userSpaceOnUse"><stop offset="0" stop-color="#42e8e0"/><stop offset="0.11" stop-color="#37b6bf"/><stop offset="0.22" stop-color="#2c87a1"/><stop offset="0.34" stop-color="#235f87"/><stop offset="0.46" stop-color="#1c3f72"/><stop offset="0.58" stop-color="#162561"/><stop offset="0.71" stop-color="#121355"/><stop offset="0.85" stop-color="#10084e"/><stop offset="1" stop-color="#0f054c"/></linearGradient></defs><title>Asset 3</title><g class="cls-2"><g id="Layer_2" data-name="Layer 2"><g id="Layer_1-2" data-name="Layer 1"><rect class="cls-3" width="2050.5" height="1367" transform="translate(2050.5 1367) rotate(180)"/><rect class="cls-4" width="2050.5" height="1367" transform="translate(2050.5 1367) rotate(180)"/><path class="cls-5" d="M1993.66,135.76a17,17,0,0,0-15.35,0c-3.18,1.84-4,4.54-2.37,6.8L1738.33,279.74V452.91l-57.88,33.41V674.68L1482.16,789.15l-30.89-17.84L1604.17,683V579.79l-.61-.35L1429.72,479.07v-35L1528,387.3c4.24,1.77,10.19,1.57,14-.63,4.24-2.45,4.24-6.42,0-8.86a17,17,0,0,0-15.35,0c-3.82,2.2-4.16,5.63-1.09,8.08l-98.31,56.77v37.81l.61.36,173.84,100.36V681.64l-115.53,66.7v-43l53-30.58c4.25,1.78,10.19,1.58,14-.63,4.24-2.44,4.24-6.41,0-8.86a16.93,16.93,0,0,0-15.34,0c-3.83,2.21-4.17,5.64-1.1,8.09l-53,30.58v45.82l-34.94,20.17-41.32-23.85V671.14l77.94-45V574.36l-.61-.35-164.06-94.72c3.07-2.45,2.73-5.88-1.09-8.09a17,17,0,0,0-15.35,0c-4.24,2.45-4.24,6.42,0,8.86,3.82,2.21,9.77,2.41,14,.63L1483,575.76v49l-75.51,43.59V616.7l-.6-.35-100.38-58c3.07-2.45,2.73-5.88-1.09-8.09a17,17,0,0,0-15.35,0c-4.24,2.45-4.24,6.42,0,8.86,3.82,2.21,9.77,2.41,14,.63l101,58.31V744.66l-29-16.76-47.82,27.61-43.31-25V669.74l-.61-.35-114.5-66.1V546a15,15,0,0,0,6.46-1.77c4.23-2.44,4.23-6.41,0-8.86a17,17,0,0,0-15.35,0c-4.24,2.45-4.24,6.42,0,8.86a14.93,14.93,0,0,0,6.46,1.77v58.68l.61.35,114.5,66.1v58L1096.18,621.52v-114l101.06-58.35H1290l.28-.16,159.14-91.88c4.24,1.77,10.19,1.57,14-.63,4.24-2.45,4.24-6.42,0-8.86a17,17,0,0,0-15.35,0c-3.82,2.2-4.16,5.64-1.09,8.09l-157.64,91h-87.88L1493.8,277.91c4.24,1.78,10.19,1.58,14-.63,4.24-2.44,4.24-6.41,0-8.86a17,17,0,0,0-15.35,0c-3.82,2.21-4.16,5.64-1.09,8.09L1093.75,506.08V622.92l.61.35,231.47,133.64-46.59,26.9L884,555.64V419.5l-.61-.36L749.05,341.55c3.07-2.45,2.73-5.88-1.1-8.09a17,17,0,0,0-15.34,0c-4.24,2.45-4.24,6.42,0,8.86,3.82,2.21,9.76,2.41,14,.64l135,77.94V557l.61.36,394.59,227.81-44.36,25.61L841.64,585.18H608.57L462.9,501.08V371.84a13.71,13.71,0,0,0,4.22-1.49c4.24-2.44,4.24-6.41,0-8.86a17,17,0,0,0-15.35,0c-4.24,2.45-4.24,6.42,0,8.86a16.08,16.08,0,0,0,8.7,1.78V502.48l.61.35,146.83,84.78H841L1170.9,778.08h-66.36l-112.6-65H905.21l-.28.16L784.64,782.69c-4.24-1.78-10.19-1.58-14,.63-4.24,2.44-4.24,6.41,0,8.86a17,17,0,0,0,15.35,0c3.82-2.21,4.16-5.64,1.09-8.09l118.79-68.58h85.43l112.6,65h71.21L1230,812.22l-118.39,68.35L1078,861.13v-51l-85.52-49.37c3.07-2.45,2.73-5.88-1.09-8.09a17,17,0,0,0-15.35,0c-4.24,2.45-4.24,6.41,0,8.86,3.82,2.21,9.77,2.4,14,.63l85.52,49.37v48.21l-91.2-52.65H941.16l-.28.16L889.4,837c-4.25-1.78-10.19-1.58-14,.63-4.24,2.44-4.24,6.41,0,8.86a17,17,0,0,0,15.34,0c3.82-2.21,4.17-5.64,1.09-8.09l50-28.86H983.7L1109.21,882l-22.8,13.17,72.77,42-34.07,19.67h-51.53l-36.87-21.29c2.93-2.44,2.54-5.81-1.23-8a17,17,0,0,0-15.35,0c-4.24,2.45-4.24,6.42,0,8.86,3.87,2.24,9.93,2.41,14.18.55l38.61,22.3h48l-86.9,50.17-204.44-118H682.45l-.28.17-82.82,47.82c-4.25-1.78-10.19-1.58-14,.63-4.24,2.44-4.24,6.41,0,8.86a17,17,0,0,0,15.35,0c3.82-2.21,4.17-5.64,1.09-8.09l81.34-47h145.8l157.68,91H919.1l-66-38.09c3.08-2.45,2.74-5.88-1.09-8.09a16.93,16.93,0,0,0-15.34,0c-4.24,2.45-4.24,6.42,0,8.86,3.82,2.21,9.76,2.41,14,.63l67.74,39.12H990.8l40.78,23.54-103.8,59.93H596.06L338.35,922c3.07-2.45,2.73-5.88-1.09-8.09a17,17,0,0,0-15.35,0c-4.24,2.45-4.24,6.42,0,8.86,3.82,2.21,9.77,2.41,14,.63l259.49,149.82H923.57L882.4,1097H636.84l-.28.16L515.47,1167c-4.24-1.78-10.19-1.58-14,.63-4.24,2.45-4.24,6.41,0,8.86a16.93,16.93,0,0,0,15.34,0c3.83-2.21,4.17-5.64,1.1-8.09l119.6-69H883.05l.28-.17L1161.6,938.55l30.9,17.84L899.93,1125.3H686l-.28.17L427.25,1274.68h-358L0,1234.72v2.81l68.56,39.58H427.91l.28-.17,162.18-93.63v55.42l-106.91,61.72c-4.24-1.77-10.19-1.58-14,.63-4.24,2.45-4.24,6.41,0,8.86a17,17,0,0,0,15.35,0c3.82-2.21,4.16-5.64,1.09-8.09l106.91-61.72v-57.91h-.56l94.39-54.49h214l.28-.16,294.06-169.78L1230,978.05,659.44,1307.48V1367h2.43v-58.12l570.58-329.43,43.36,25L981.48,1174.42v30.38l-52.18,30.13v69.87l-101.2,58.42c-4.24-1.77-10.19-1.57-14,.64a6.3,6.3,0,0,0-2.93,3.14h21.16a5.42,5.42,0,0,0-1.79-2.37l101.2-58.43v-69.87l49.75-28.73v111.9l29.37,17L957.93,1367h4.86l50.48-29.15,50.49,29.15h4.86l-84.71-48.91V1175.82l294.33-169.93,39.47,22.79-208.29,120.26c-4.24-1.78-10.18-1.58-14,.63-4.24,2.44-4.24,6.41,0,8.86a17,17,0,0,0,15.35,0c3.82-2.21,4.16-5.64,1.09-8.09l208.29-120.26,38.11,22-249.16,143.85h-67.71a6.21,6.21,0,0,0-3-3.21,17,17,0,0,0-15.35,0c-4.24,2.44-4.24,6.41,0,8.86a17,17,0,0,0,15.35,0,6.26,6.26,0,0,0,3-3.22h68.36l.29-.16,250.65-144.71,15.38,8.88,11.84-6.84,59.7,34.47v48l-49.32,28.48v-.13h-77.39l-.28.16-84.92,49c-4.24-1.77-10.19-1.57-14,.63-4.24,2.45-4.24,6.42,0,8.86a17,17,0,0,0,15.35,0c3.82-2.2,4.16-5.64,1.09-8.09l83.42-48.16h72.76l-145,83.71c-4.26-1.92-10.39-1.77-14.31.49-4.24,2.44-4.24,6.41,0,8.86a17,17,0,0,0,15.35,0c3.73-2.16,4.17-5.48,1.33-7.92l180.85-104.41v23.08l-107.59,62.12v43.86l-87.61,50.58c-4.24-1.78-10.18-1.58-14,.63-4.23,2.45-4.24,6.41,0,8.86a17,17,0,0,0,15.35,0c3.82-2.21,4.16-5.64,1.09-8.09l87.6-50.58v-43.86L1435,1174v-25.88l15.07-8.7V1088.6l-59.7-34.47,39.23-22.65,122.84,70.92V1183l-83.4,48.15c-4.26-1.92-10.4-1.77-14.32.49-4.24,2.45-4.24,6.41,0,8.86a17,17,0,0,0,15.35,0c3.73-2.15,4.17-5.48,1.34-7.92l81-46.78V1251l-64,37V1367h2.43v-77.68l61.59-35.56V1367h2.43V1101L1432,1030.08l44-25.43,160.55,92.69v220.75l77.17,44.56V1367h2.43v-5.75L1639,1316.69V1095.94l-160.54-92.7,32.65-18.85,216.67,125.1v188.35L1847.57,1367h4.86l-122.22-70.56V1108.09L1513.55,983l52.91-30.55L1927,1160.57v93.73l123.55,71.33v-2.81l-121.12-69.93v-93.72L1726.61,1042.1H1887l163.52,94.41v-2.8l-162.87-94H1722.41L1568.89,951l61.5-35.51,132,76.19h211.89l76.26,44V1033l-16.72-9.66h16.72v-2.43h-20.92l-54.69-31.57H1763L1726.08,968h90.07l.29-.16,45.18-26.09h188.26l.62.36v-2.79H1865.83l50.87-29.37c4.24,1.78,10.19,1.58,14-.63,4.24-2.44,4.24-6.41,0-8.86a17,17,0,0,0-15.35,0c-3.82,2.21-4.16,5.64-1.09,8.09l-98.77,57h-93.63l-89-51.41,32.9-19-21.17-12.22h61.55l80.46,46.45c-3.07,2.45-2.73,5.88,1.09,8.09a17,17,0,0,0,15.35,0c4.24-2.45,4.24-6.42,0-8.86-3.82-2.21-9.76-2.41-14-.63l-82.24-47.48h-66.41l-45-26,27.69-16h49.13l43.18-24.93h32.23l72.78,42c-3.26,2.45-3,6,.9,8.22a17,17,0,0,0,15.35,0c4.24-2.45,4.24-6.41,0-8.86-3.75-2.16-9.55-2.4-13.77-.74l-74.61-43.07h-33.53l-43.18,24.93h-44.27l88.54-51.12h47.8l99.64,57.53H2050.5V840H1863.84l-99.64-57.53h-49.11l-.28.17-121.93,70.4-32-18.47,137.78-79.55h97.18L1876,801.34H2050.5v-2.43H1876.67l-76-43.85H2050.5v-2.42H1698l-.28.16L1558.46,833.2l-36.35-21,192.13-110.93H2050.5v-2.43h-245l245-141.47v-2.81L1800.6,698.86H1716l182.16-105.17V570.51l87.17-50.33c4.24,1.78,10.19,1.58,14-.63,4.24-2.44,4.24-6.41,0-8.86a17,17,0,0,0-15.35,0c-3.82,2.21-4.16,5.64-1.09,8.09l-47.46,27.4V482.66l115-66.42v-2.81L1933,481.26v66.33l-37.28,21.52v23.18l-183.65,106,.61,1.06-193,111.44-35.09-20.27,198.28-114.47V487.73L2050.5,275.48v-2.81L1740.76,451.5V281.15l237.07-136.87a5.85,5.85,0,0,0,.48.34,17,17,0,0,0,15.35,0C1997.9,142.17,1997.9,138.21,1993.66,135.76ZM1660.87,895.13l-284.81,164.44L1091.27,895.14l284.8-164.44Z"/><path class="cls-6" d="M2050.5,430.41l-50.63,29.23v94.18L1550.14,813.47,1516,793.74,1748,659.8V635.86l41.13-23.75V557l79.76-46a13.53,13.53,0,0,0,11.05-.5c3.34-1.93,3.34-5.05,0-7a13.37,13.37,0,0,0-12.1,0c-3,1.74-3.28,4.44-.86,6.37l-79.76,46V611L1748,633.64V545.46l-.47-.28-22.67-13.09,136-78.51v-88.3l96.61-55.78a13.51,13.51,0,0,0,11-.5c3.34-1.92,3.34-5.05,0-7a13.35,13.35,0,0,0-12.09,0c-3,1.74-3.28,4.45-.86,6.38l-96.61,55.77v88.3l-136,78.52L1501.8,403.34V304.57a11.77,11.77,0,0,0,5.09-1.4c3.34-1.93,3.34-5.05,0-7a13.37,13.37,0,0,0-12.1,0c-3.34,1.93-3.34,5.05,0,7a11.81,11.81,0,0,0,5.09,1.4v99.87l.48.28,133,76.78h-96.92l-78.36-45.24c2.42-1.94,2.15-4.64-.87-6.38a13.35,13.35,0,0,0-12.09,0c-3.34,1.93-3.34,5.06,0,7a13.51,13.51,0,0,0,11,.5l79.77,46.06h100.7v0L1746,546.56V658.7l-232,133.93-31.11-18,164.17-94.79a13.51,13.51,0,0,0,11-.5c3.34-1.93,3.34-5,0-7a13.35,13.35,0,0,0-12.09,0c-3,1.74-3.29,4.44-.87,6.37L1481,773.57l-30-17.34,196.38-113.38h53.37a5,5,0,0,0,2.34,2.53,13.37,13.37,0,0,0,12.1,0c3.34-1.93,3.34-5.06,0-7a13.37,13.37,0,0,0-12.1,0,5,5,0,0,0-2.34,2.53h-53.88l-.23.13L1449.07,755.12l-12.12-7-.48.28-8.85,5.11-47.06-27.17v-37.8l38.87-22.45v.11h61l67.15-38.77a13.53,13.53,0,0,0,11.05-.5c3.34-1.92,3.34-5,0-7a13.37,13.37,0,0,0-12.1,0c-3,1.74-3.28,4.45-.86,6.38l-65.76,38h-57.34l114.28-66a13.5,13.5,0,0,0,11.28-.38c3.34-1.93,3.34-5.06,0-7a13.37,13.37,0,0,0-12.1,0c-2.94,1.7-3.28,4.32-1,6.24l-142.54,82.3v-18.2l84.8-49V577.74l69-39.86a13.51,13.51,0,0,0,11-.5c3.34-1.93,3.34-5,0-7a13.35,13.35,0,0,0-12.09,0c-3,1.74-3.29,4.44-.86,6.37l-69.05,39.87v34.57l-84.81,49v20.4l-11.88,6.86v40l47,27.16-30.92,17.85L1298,716.56V653l65.74-38a13.46,13.46,0,0,0,11.28-.38c3.34-1.93,3.34-5.06,0-7a13.37,13.37,0,0,0-12.1,0c-2.94,1.69-3.29,4.31-1.05,6.23L1298,650.81V599.47l50.46-29.13V473.78a11.77,11.77,0,0,0,5.09-1.4c3.34-1.93,3.34-5.05,0-7a13.37,13.37,0,0,0-12.1,0c-3.34,1.93-3.34,5.05,0,7a11.77,11.77,0,0,0,5.09,1.4v95.46l-48.54,28V427h-1.91V717.67l96.81,55.9-34.71,20-126.54-73.06v-174l-60.83-35.12V446l-53.71-31c2.42-1.93,2.15-4.63-.86-6.37a13.37,13.37,0,0,0-12.1,0c-3.34,1.93-3.34,5.05,0,7a13.51,13.51,0,0,0,11,.5l53.71,31v65.44l60.82,35.12v174l126.54,73.06-25.73,14.86L1159.72,711V562.52l-.48-.27L1008.08,475c2.42-1.93,2.15-4.64-.86-6.38a13.43,13.43,0,0,0-12.1,0c-3.34,1.93-3.34,5.06,0,7a13.55,13.55,0,0,0,11,.5l151.65,87.55V712.08l.48.28,170.3,98.32-41.7,24.08-284.14-164V596.84l-.48-.27L764.38,459.23c2.43-1.93,2.16-4.64-.86-6.38a13.41,13.41,0,0,0-12.09,0c-3.34,1.93-3.34,5.06,0,7a13.55,13.55,0,0,0,11,.5L1000.82,598v73.87l.48.28,159.34,92H1034.25L887.93,679.62c2.43-1.93,2.16-4.64-.86-6.38a13.41,13.41,0,0,0-12.09,0c-3.34,1.93-3.34,5.06,0,7a13.51,13.51,0,0,0,11,.49L1033.74,766H1164l121,69.86-48.47,28-104-60.05h-167L775.53,694.14H670.15l-43-24.8c2.42-1.94,2.15-4.64-.86-6.38a13.37,13.37,0,0,0-12.1,0c-3.34,1.93-3.34,5.06,0,7a13.51,13.51,0,0,0,11,.5l44.37,25.62H775l143.53,82.87h-124l-59.71-34.47c2.42-1.93,2.16-4.64-.86-6.38a13.41,13.41,0,0,0-12.09,0c-3.34,1.93-3.34,5.06,0,7a13.54,13.54,0,0,0,11,.5l61.1,35.28H921.86L965,805.72h167l29.1,16.8h-71l-.22.13-35.61,20.56H905.85L864,819.05H780.06a4.88,4.88,0,0,0-2.34-2.54,13.4,13.4,0,0,0-12.1,0c-3.34,1.92-3.34,5.05,0,7a13.37,13.37,0,0,0,12.1,0,4.88,4.88,0,0,0,2.34-2.54h83.42l41.86,24.17h145.58l-40.1,23.15a13.51,13.51,0,0,0-11,.49c-3.34,1.93-3.34,5.06,0,7a13.37,13.37,0,0,0,12.1,0c3-1.74,3.28-4.45.86-6.38l77.84-44.94h73.81L1234.57,865l-25.93,15,1.43.83,15.25,8.81h-48.51L1113.4,853c2.42-1.94,2.15-4.64-.87-6.38a13.35,13.35,0,0,0-12.09,0c-3.34,1.93-3.34,5.06,0,7a13.5,13.5,0,0,0,11,.5l64.82,37.43h52.34l35.5,20.5-21.83,12.6h-38.72l-.22.13-33.82,19.52h-25.4l-57.36-33.12c2.57-1.94,2.36-4.71-.71-6.48a13.37,13.37,0,0,0-12.1,0c-3.34,1.93-3.34,5,0,7a13.53,13.53,0,0,0,10.85.59l58.81,33.95h26.43l.22-.13,33.82-19.52H1239l-69.78,40.28h-37.67L1053,921.44H816.15l-146.9-84.82c2.54-1.93,2.32-4.69-.74-6.46a13.37,13.37,0,0,0-12.1,0c-3.34,1.93-3.34,5.06,0,7a13.59,13.59,0,0,0,10.89.57l148.34,85.64h236.84L1131,968.7h38.71l.22-.13,96.11-55.49,25.21,14.56-108.6,62.7h-76.59l-63.19-36.48H880.71a5,5,0,0,0-2.34-2.54,13.43,13.43,0,0,0-12.1,0c-3.34,1.93-3.34,5.06,0,7a13.37,13.37,0,0,0,12.1,0,5,5,0,0,0,2.34-2.53h161.66l59.87,34.57H873.71l-.22.13L655.7,1116.21a13.51,13.51,0,0,0-11,.5c-3.34,1.93-3.34,5,0,7a13.37,13.37,0,0,0,12.1,0c3-1.74,3.28-4.44.86-6.37L874.23,992.26h309l.22-.13,109.78-63.38,28.64,16.54-151.43,87.43H903.75l-.22.13L670,1167.66H398l-158.66-91.61c2.41-1.93,2.14-4.63-.87-6.37a13.35,13.35,0,0,0-12.09,0c-3.34,1.93-3.34,5.06,0,7a13.5,13.5,0,0,0,11,.5l160.06,92.42H670.54l.23-.12,233.49-134.82h194.23L813.29,1199.3v43.34l-113.77,65.68a13.55,13.55,0,0,0-11,.5c-3.34,1.93-3.34,5.06,0,7a13.43,13.43,0,0,0,12.1,0c3-1.74,3.28-4.45.86-6.38l113.76-65.68V1200.4l287.12-165.77H1169l-143.58,82.9v18.27l-68.7,39.66a13.55,13.55,0,0,0-11,.5c-3.34,1.93-3.34,5.06,0,7a13.43,13.43,0,0,0,12.1,0c3-1.74,3.28-4.45.86-6.38L996,1155V1205l-216.1,124.77a13.53,13.53,0,0,0-11.05.5c-3.34,1.93-3.34,5,0,7a13.37,13.37,0,0,0,12.1,0c3-1.74,3.28-4.44.86-6.37L998,1206.15v-52.28l29.38-17v-18.27l144.75-83.58-.48-.83,152.14-87.84,27.65,16-156.28,90.23v148.46L907.68,1367h3.83l238-137.4v134.27l-5.42,3.13h3.83l3.51-2V1228.5l45.62-26.34V1053.7l156.28-90.23,24.35,14-120.51,69.58v81.39l.47.27,137,79.11v27.6l-77.49,44.73a13.55,13.55,0,0,0-11,.5c-3.34,1.93-3.34,5.06,0,7a13.43,13.43,0,0,0,12.1,0c3-1.74,3.28-4.45.86-6.38l77.49-44.74v-29.81l-.48-.28-137-79.1v-79.17l91.06-52.57v33.9l-41.75,24.1a13.55,13.55,0,0,0-11,.5c-3.34,1.93-3.34,5.06,0,7a13.37,13.37,0,0,0,12.1,0c3-1.74,3.28-4.44.86-6.37l41.74-24.1V994.53l27.54-15.9,32.56,18.8v59.05l-61.43,35.46v40.82l.48.28,129.31,74.66c-2.42,1.93-2.15,4.63.86,6.37a13.37,13.37,0,0,0,12.1,0c3.34-1.93,3.34-5,0-7a13.51,13.51,0,0,0-11-.5l-129.79-74.93v-38.61l59.51-34.36v40.7l79.59,45.95c-2.42,1.93-2.15,4.64.86,6.38a13.37,13.37,0,0,0,12.1,0c3.34-1.93,3.34-5.06,0-7a13.51,13.51,0,0,0-11-.49l-79.6-46V998.54l22.87,13.2.48-.27L1474.63,990l34.13,19.7v47.9l90.73,52.37v45.15a11.94,11.94,0,0,0-5.09,1.39c-3.34,1.93-3.34,5.06,0,7a13.43,13.43,0,0,0,12.1,0c3.34-1.93,3.34-5.06,0-7a11.9,11.9,0,0,0-5.09-1.39v-46.25l-90.72-52.38V1010.8l146.87,84.8v89.88l-79.66,46h-73.1l-.22.12L1379.14,1304a13.55,13.55,0,0,0-11,.5c-3.34,1.93-3.34,5.06,0,7a13.4,13.4,0,0,0,12.1,0c3-1.73,3.28-4.44.86-6.37l124.25-71.74h69.26l-230.42,133a13.5,13.5,0,0,0-11,.5.5.5,0,0,0-.12.08h14l312.48-180.41v-92.1l-.47-.28L1476.55,988.88l36.71-21.2,311.49,179.84v107.31l106.4,61.43c-2.42,1.93-2.15,4.64.87,6.38a13.41,13.41,0,0,0,12.09,0c3.34-1.93,3.34-5.06,0-7a13.54,13.54,0,0,0-11-.5l-106.41-61.43V1146.41l-.48-.28-311-179.56,35-20.18,308,177.85h183.7l8.62,5V1127l-8.11-4.68h-183.7l-260-150.13H1651l88.75,51.24h68.36l.22-.13,94.81-54.74a13.54,13.54,0,0,0,11-.49c3.34-1.93,3.34-5.06,0-7a13.35,13.35,0,0,0-12.09,0c-3,1.74-3.28,4.44-.87,6.38l-93.62,54h-67.34l-88.75-51.24h-56.13l-43.29-25,93.31-53.87,26.54,15.32v40.21l67.41,38.92c-2.42,1.93-2.15,4.63.86,6.37a13.37,13.37,0,0,0,12.1,0c3.34-1.93,3.34-5.06,0-7a13.53,13.53,0,0,0-11-.5l-67.4-38.92v-38l71.88,41.5h34l.22-.13,40.59-23.43a13.51,13.51,0,0,0,11-.5c3.34-1.93,3.34-5,0-7a13.37,13.37,0,0,0-12.1,0c-3,1.74-3.28,4.44-.86,6.37l-39.4,22.75h-33l-98.93-57.12,18-10.37-1.43-.83-55.92-32.28,26.85-15.51h40.61l29.06,16.78c-2.31,1.93-2,4.58,1,6.3a13.37,13.37,0,0,0,12.1,0c3.34-1.93,3.34-5.06,0-7a13.46,13.46,0,0,0-11.17-.44l-30.44-17.58h-37.81l68.48-39.53,161.15,93h115.94l.23-.13,65.28-37.69c.42.17.9.25,1.35.38v-8.82a10.54,10.54,0,0,0-2.41,1c-3,1.74-3.28,4.44-.86,6.37l-64.1,37H1868.21l-124.28-71.75h53.19l52,30c-2.42,1.93-2.15,4.64.86,6.38a13.37,13.37,0,0,0,12.1,0c3.34-1.93,3.34-5.06,0-7a13.55,13.55,0,0,0-11-.5l-53.4-30.83h-57l-32.15-18.56,81.81-47.23H2050.5V739.6H1793.6l32.45-18.73h193.54l.22-.12L2050.5,703v-2.21L2019.08,719H1825.54l-.23.13L1606,845.71l-24.35-14.06,230.6-133.13h168.64l.22-.12,69.41-40.08V656.1l-70.15,40.5H1811.71l-.22.13L1579.71,830.54l-27.65-16,449.72-259.65V460.75l48.71-28.13ZM1661.42,879.93l-224.48,129.6-224.47-129.6L1437,750.33Z"/><g class="cls-7"><polygon class="cls-3" points="1379.49 1253.93 802.64 920.89 1379.47 587.86 1956.32 920.9 1379.49 1253.93"/></g><g class="cls-7"><polygon class="cls-3" points="1379.49 1202.29 892.1 920.89 1379.47 639.51 1866.86 920.9 1379.49 1202.29"/></g><g class="cls-8"><polygon class="cls-9" points="1379.48 1142.27 996.05 920.89 1379.47 699.52 1762.91 920.9 1379.48 1142.27"/></g><path class="cls-10" d="M1458.39,1149.43a21.13,21.13,0,0,1-10.37-2.62L990.26,882.53c-3.15-1.82-5-4.35-5-6.95,0-2.25,1.33-4.26,3.74-5.66l273.16-157.7c4.86-2.81,13-2.5,18.56.7L1738.52,977.2c3.16,1.82,5,4.35,5,6.95,0,2.25-1.34,4.26-3.75,5.66l-273.16,157.71A16.72,16.72,0,0,1,1458.39,1149.43ZM991.89,879.7,1449.65,1144c4.47,2.59,11.48,2.91,15.29.71L1738.11,987c1-.56,2.11-1.5,2.11-2.83s-1.25-2.91-3.33-4.11L1279.13,715.75c-4.48-2.59-11.48-2.91-15.29-.7L990.67,872.75c-1,.56-2.11,1.5-2.11,2.83s1.25,2.92,3.33,4.12Z"/><path class="cls-11" d="M1280.6,631.94l57.86-343.31-4.65-2,7-4v0c1.35-.9,3.27-.84,5.39.38l462.46,267c3.79,2.19,6.67,7.81,6,11.74l-58.32,346a4.34,4.34,0,0,1-2.44,3.52h0l-6.85,4-1.17-6.39.39.12L1286.6,643.68C1282.8,641.49,1279.93,635.87,1280.6,631.94Z"/><path class="cls-12" d="M1806.06,559.47l7.6-3.37a10.43,10.43,0,0,1,1,5.72l-58.32,346a4.34,4.34,0,0,1-2.44,3.52h0l-6.85,4-1.17-6.39.39.12L1723,895.64Z"/><path class="cls-13" d="M1279.34,647.85l462.47,267c3.57,2.06,6.62.87,7.25-2.83l58.33-346c.66-3.93-2.21-9.56-6-11.75l-462.46-267c-3.57-2.06-6.63-.87-7.25,2.82l-58.33,346C1272.67,640,1275.55,645.65,1279.34,647.85Z"/><g class="cls-14"><polygon class="cls-15" points="1337.37 293.68 1802 561.81 1743.32 908.73 1278.99 640.76 1337.37 293.68"/></g><path class="cls-16" d="M988.64,811.67l25.24,13.18L1267,678.74c4.23-2.44,11.63-2.13,16.52.69l436.47,252c4.18-2.34,23.22-11.5,23.22-11.5l-9.24,15,0,0a5.52,5.52,0,0,1-2.59,2.86l-266.53,153.89c-4.23,2.44-11.63,2.13-16.52-.69L1001.6,833.11a8,8,0,0,1-3.75-4l0,0Z"/><path class="cls-17" d="M992.54,815.82l457.76,264.29c5,2.89,12.59,3.21,16.93.7L1740.39,923.1c4.34-2.51,3.8-6.88-1.21-9.77L1281.42,649c-5-2.89-12.59-3.21-16.93-.7L991.33,806.05C987,808.55,987.53,812.93,992.54,815.82Z"/><path class="cls-18" d="M992.54,813.77l457.76,264.29c5,2.89,12.59,3.2,16.93.7l273.16-157.71a5.47,5.47,0,0,0,2.75-3.2c.49,1.94-.37,3.88-2.75,5.25l-273.16,157.71c-4.34,2.51-11.92,2.19-16.93-.7L992.54,815.82c-3.24-1.87-4.58-4.37-4-6.57C989,810.85,990.28,812.46,992.54,813.77Z"/><g class="cls-19"><g class="cls-20"><path class="cls-21" d="M1278.78,645.62,1304,658.8l253.07-146.11c4.23-2.45,11.62-2.14,16.51.68l436.48,252c4.17-2.33,23.22-11.49,23.22-11.49l-9.24,15,0,0a5.5,5.5,0,0,1-2.58,2.87L1754.91,925.61c-4.24,2.45-11.63,2.14-16.52-.68L1291.74,667.05a8,8,0,0,1-3.75-4l0,0Z"/><path class="cls-22" d="M1282.68,649.77l457.76,264.28c5,2.9,12.59,3.21,16.93.71l273.16-157.71c4.34-2.51,3.79-6.89-1.22-9.78L1571.56,483c-5-2.9-12.59-3.21-16.93-.71L1281.46,640C1277.13,642.5,1277.67,646.87,1282.68,649.77Z"/><path class="cls-18" d="M2029.31,747.27,1571.56,483a20,20,0,0,0-11.32-2.31,19.15,19.15,0,0,1,7.94,2.31l457.76,264.28c5,2.89,5.55,7.27,1.22,9.78L1754,914.76a13.69,13.69,0,0,1-5.61,1.59,16.12,16.12,0,0,0,9-1.59l273.16-157.71C2034.87,754.54,2034.32,750.16,2029.31,747.27Z"/><g class="cls-23"><path class="cls-13" d="M1522.45,604.27l-14.67-8.47a4.9,4.9,0,0,0-4.45.12L1487,605.45c-1.28.75-1.36,1.91-.18,2.59l14.67,8.47a4.9,4.9,0,0,0,4.45-.13l16.31-9.52C1523.55,606.11,1523.63,605,1522.45,604.27Z"/><path class="cls-13" d="M1545.11,617.35l-14.67-8.47a4.93,4.93,0,0,0-4.45.12l-16.31,9.53c-1.28.75-1.36,1.91-.18,2.59l14.67,8.47a4.9,4.9,0,0,0,4.45-.12l16.31-9.53C1546.21,619.19,1546.29,618,1545.11,617.35Z"/><path class="cls-13" d="M1567.77,630.44,1553.1,622a4.9,4.9,0,0,0-4.45.13l-16.31,9.52c-1.28.75-1.36,1.91-.19,2.59l14.68,8.47a4.9,4.9,0,0,0,4.45-.12l16.31-9.53C1568.87,632.27,1569,631.12,1567.77,630.44Z"/><path class="cls-13" d="M1550.52,647.85l-14.67-8.47a4.9,4.9,0,0,0-4.45.12l-13.69,8c-1.28.75-1.37,1.9-.19,2.58l14.67,8.48a4.92,4.92,0,0,0,4.46-.13l13.69-8C1551.62,649.69,1551.7,648.53,1550.52,647.85Z"/><path class="cls-13" d="M1573.18,660.93l-14.67-8.47a4.9,4.9,0,0,0-4.45.12l-13.69,8c-1.28.75-1.37,1.91-.19,2.59l14.67,8.47a4.92,4.92,0,0,0,4.46-.13l13.69-8C1574.28,662.77,1574.36,661.61,1573.18,660.93Z"/><path class="cls-13" d="M1595.84,674l-14.67-8.47a4.9,4.9,0,0,0-4.45.13l-13.69,8c-1.28.75-1.37,1.91-.19,2.59l14.67,8.47a4.92,4.92,0,0,0,4.46-.12l13.69-8C1596.94,675.85,1597,674.69,1595.84,674Z"/><path class="cls-13" d="M1618.5,687.1l-14.67-8.48a4.9,4.9,0,0,0-4.45.13l-13.69,8c-1.28.74-1.37,1.9-.19,2.58l14.67,8.47a4.92,4.92,0,0,0,4.46-.12l13.69-8C1619.6,688.93,1619.68,687.78,1618.5,687.1Z"/><path class="cls-13" d="M1641.16,700.18l-14.67-8.47a4.9,4.9,0,0,0-4.45.12l-13.69,8c-1.28.75-1.37,1.9-.19,2.58l14.67,8.48a4.92,4.92,0,0,0,4.46-.13l13.69-8C1642.26,702,1642.34,700.86,1641.16,700.18Z"/><path class="cls-13" d="M1663.82,713.26l-14.67-8.47a4.9,4.9,0,0,0-4.45.12l-13.69,8c-1.28.75-1.37,1.91-.19,2.59l14.67,8.47a5,5,0,0,0,4.46-.12l13.69-8C1664.92,715.1,1665,713.94,1663.82,713.26Z"/><path class="cls-13" d="M1686.48,726.34l-14.67-8.47a4.9,4.9,0,0,0-4.45.13l-13.69,8c-1.28.75-1.37,1.91-.19,2.59l14.67,8.47a4.92,4.92,0,0,0,4.46-.12l13.69-8C1687.58,728.18,1687.66,727,1686.48,726.34Z"/><path class="cls-13" d="M1709.14,739.43,1694.47,731a4.86,4.86,0,0,0-4.45.12l-13.69,8c-1.28.74-1.37,1.9-.19,2.58l14.67,8.47a4.92,4.92,0,0,0,4.46-.12l13.69-8C1710.24,741.26,1710.32,740.11,1709.14,739.43Z"/><path class="cls-13" d="M1731.8,752.51,1717.13,744a4.9,4.9,0,0,0-4.45.12l-13.69,8c-1.28.75-1.37,1.91-.19,2.59l14.67,8.47a4.92,4.92,0,0,0,4.46-.13l13.69-8C1732.9,754.35,1733,753.19,1731.8,752.51Z"/><path class="cls-13" d="M1754.46,765.59l-14.67-8.47a4.93,4.93,0,0,0-4.45.12l-13.69,8c-1.28.75-1.37,1.91-.19,2.59l14.67,8.47a5,5,0,0,0,4.46-.12l13.69-8C1755.56,767.43,1755.64,766.27,1754.46,765.59Z"/><path class="cls-13" d="M1541.08,666.52l-14.67-8.47a4.9,4.9,0,0,0-4.45.13l-13.69,8c-1.28.75-1.37,1.91-.19,2.59l14.67,8.47a4.92,4.92,0,0,0,4.46-.12l13.69-8C1542.18,668.36,1542.26,667.2,1541.08,666.52Z"/><path class="cls-13" d="M1518.09,653.25l-14.68-8.48a4.9,4.9,0,0,0-4.45.13l-13.69,8c-1.28.74-1.36,1.9-.19,2.58l14.68,8.47a4.9,4.9,0,0,0,4.45-.12l13.69-8C1519.18,655.08,1519.26,653.93,1518.09,653.25Z"/><path class="cls-13" d="M1495.05,640l-31.6-18.25a5,5,0,0,0-4.46.12l-13.68,8c-1.29.75-1.37,1.91-.19,2.59l31.6,18.24a4.9,4.9,0,0,0,4.45-.12l13.69-8C1496.14,641.78,1496.23,640.63,1495.05,640Z"/><path class="cls-13" d="M1468.32,648.64l-25.64-14.81a4.9,4.9,0,0,0-4.45.13l-13.69,8c-1.29.74-1.37,1.9-.19,2.58L1450,659.35a4.93,4.93,0,0,0,4.45-.12l13.69-8C1469.42,650.48,1469.5,649.32,1468.32,648.64Z"/><path class="cls-13" d="M1563.74,679.61l-14.67-8.48a4.9,4.9,0,0,0-4.45.13l-13.69,8c-1.28.74-1.37,1.9-.19,2.58l14.67,8.47a4.92,4.92,0,0,0,4.46-.12l13.69-8C1564.84,681.44,1564.92,680.29,1563.74,679.61Z"/><path class="cls-13" d="M1586.4,692.69l-14.67-8.47a4.9,4.9,0,0,0-4.45.12l-13.69,8c-1.28.75-1.37,1.9-.19,2.59l14.67,8.47a4.92,4.92,0,0,0,4.46-.13l13.69-8C1587.5,694.53,1587.58,693.37,1586.4,692.69Z"/><path class="cls-13" d="M1609.06,705.77l-14.67-8.47a4.9,4.9,0,0,0-4.45.12l-13.69,8c-1.28.75-1.37,1.91-.19,2.59l14.67,8.47a5,5,0,0,0,4.46-.12l13.69-8C1610.16,707.61,1610.24,706.45,1609.06,705.77Z"/><path class="cls-13" d="M1631.72,718.85l-14.67-8.47a4.9,4.9,0,0,0-4.45.13l-13.69,8c-1.28.75-1.37,1.91-.19,2.59l14.67,8.47a4.92,4.92,0,0,0,4.46-.12l13.69-8C1632.82,720.69,1632.9,719.53,1631.72,718.85Z"/><path class="cls-13" d="M1654.38,731.94l-14.67-8.47a4.86,4.86,0,0,0-4.45.12l-13.69,8c-1.28.74-1.37,1.9-.19,2.58l14.67,8.47a4.89,4.89,0,0,0,4.46-.12l13.69-8C1655.48,733.78,1655.56,732.62,1654.38,731.94Z"/><path class="cls-13" d="M1677,745l-14.67-8.47a4.9,4.9,0,0,0-4.45.12l-13.69,8c-1.28.75-1.37,1.91-.19,2.59l14.67,8.47a4.92,4.92,0,0,0,4.46-.13l13.69-8C1678.14,746.86,1678.22,745.7,1677,745Z"/><path class="cls-13" d="M1699.7,758.1,1685,749.63a4.93,4.93,0,0,0-4.45.12l-13.69,8c-1.28.75-1.37,1.91-.19,2.59l14.67,8.47a4.92,4.92,0,0,0,4.46-.12l13.69-8C1700.8,759.94,1700.88,758.78,1699.7,758.1Z"/><path class="cls-13" d="M1722.36,771.18l-14.67-8.47a4.9,4.9,0,0,0-4.45.13l-13.69,8c-1.28.75-1.37,1.91-.19,2.59l14.67,8.47a4.92,4.92,0,0,0,4.46-.12l13.69-8C1723.46,773,1723.54,771.86,1722.36,771.18Z"/><path class="cls-13" d="M1745,784.27l-14.67-8.47a4.9,4.9,0,0,0-4.45.12l-13.69,8c-1.28.75-1.37,1.9-.19,2.58l14.67,8.48a4.92,4.92,0,0,0,4.46-.13l13.69-8C1746.12,786.11,1746.2,785,1745,784.27Z"/><path class="cls-13" d="M1785.31,807.53l-32-18.49a4.93,4.93,0,0,0-4.45.12l-13.69,8c-1.28.75-1.37,1.91-.19,2.59l32,18.48a4.9,4.9,0,0,0,4.45-.12l13.69-8C1786.4,809.36,1786.48,808.21,1785.31,807.53Z"/><path class="cls-13" d="M1743.77,831.79l-27-15.6a4.9,4.9,0,0,0-4.45.13l-13.69,8c-1.28.75-1.36,1.91-.18,2.59l27,15.6a4.9,4.9,0,0,0,4.45-.12l13.69-8C1744.86,833.63,1744.94,832.47,1743.77,831.79Z"/><path class="cls-13" d="M1560.6,701.92l-14.68-8.48a4.9,4.9,0,0,0-4.45.13l-13.69,8c-1.28.74-1.36,1.9-.18,2.58l14.67,8.47a4.9,4.9,0,0,0,4.45-.12l13.69-8C1561.69,703.75,1561.78,702.6,1560.6,701.92Z"/><path class="cls-13" d="M1537.37,688.51,1522.7,680a4.9,4.9,0,0,0-4.45.12l-13.69,8c-1.28.75-1.37,1.9-.19,2.58l14.68,8.48a4.9,4.9,0,0,0,4.45-.13l13.69-8C1538.47,690.35,1538.55,689.19,1537.37,688.51Z"/><path class="cls-13" d="M1514.15,675.1l-14.67-8.47a4.9,4.9,0,0,0-4.45.12l-13.69,8c-1.29.75-1.37,1.91-.19,2.59l14.67,8.47a4.9,4.9,0,0,0,4.45-.13l13.69-8C1515.25,676.94,1515.33,675.78,1514.15,675.1Z"/><path class="cls-13" d="M1490.93,661.69l-14.68-8.47a4.9,4.9,0,0,0-4.45.12l-13.69,8c-1.28.75-1.36,1.91-.18,2.59l14.67,8.47a4.93,4.93,0,0,0,4.45-.12l13.69-8C1492,663.53,1492.11,662.37,1490.93,661.69Z"/><path class="cls-13" d="M1583.26,715l-14.68-8.47a4.9,4.9,0,0,0-4.45.12l-13.69,8c-1.28.75-1.36,1.9-.18,2.58l14.67,8.48a4.9,4.9,0,0,0,4.45-.13l13.69-8C1584.35,716.84,1584.44,715.68,1583.26,715Z"/><path class="cls-13" d="M1605.92,728.08l-14.68-8.47a4.9,4.9,0,0,0-4.45.12l-13.69,8c-1.28.75-1.36,1.91-.18,2.59l14.67,8.47a4.93,4.93,0,0,0,4.45-.12l13.69-8C1607,729.92,1607.1,728.76,1605.92,728.08Z"/><path class="cls-13" d="M1628.58,741.16l-14.68-8.47a4.9,4.9,0,0,0-4.45.13l-13.69,8c-1.28.75-1.36,1.91-.18,2.59l14.67,8.47a4.9,4.9,0,0,0,4.45-.12l13.69-8C1629.67,743,1629.76,741.84,1628.58,741.16Z"/><path class="cls-13" d="M1651.24,754.25l-14.68-8.48a4.9,4.9,0,0,0-4.45.13l-13.69,8c-1.28.74-1.36,1.9-.18,2.58l14.67,8.47a4.9,4.9,0,0,0,4.45-.12l13.69-8C1652.33,756.08,1652.42,754.93,1651.24,754.25Z"/><path class="cls-13" d="M1673.9,767.33l-14.68-8.47a4.9,4.9,0,0,0-4.45.12l-13.69,8c-1.28.75-1.36,1.91-.18,2.59l14.67,8.47a4.9,4.9,0,0,0,4.45-.13l13.69-8C1675,769.17,1675.07,768,1673.9,767.33Z"/><path class="cls-13" d="M1696.56,780.41l-14.68-8.47a4.93,4.93,0,0,0-4.45.12l-13.69,8c-1.28.75-1.36,1.91-.18,2.59l14.67,8.47a4.93,4.93,0,0,0,4.45-.12l13.69-8C1697.65,782.25,1697.73,781.09,1696.56,780.41Z"/><path class="cls-13" d="M1719.22,793.49,1704.54,785a4.9,4.9,0,0,0-4.45.13l-13.69,8c-1.28.75-1.36,1.91-.18,2.59l14.67,8.47a4.9,4.9,0,0,0,4.45-.12l13.69-8C1720.31,795.33,1720.39,794.17,1719.22,793.49Z"/><path class="cls-13" d="M1741.88,806.58l-14.68-8.47a4.9,4.9,0,0,0-4.45.12l-13.69,8c-1.28.75-1.36,1.9-.19,2.58l14.68,8.48a4.9,4.9,0,0,0,4.45-.13l13.69-8C1743,808.42,1743.05,807.26,1741.88,806.58Z"/><path class="cls-13" d="M1764.54,819.66l-14.68-8.47a4.9,4.9,0,0,0-4.45.12l-13.69,8c-1.28.75-1.36,1.91-.19,2.59l14.68,8.47a4.9,4.9,0,0,0,4.45-.13l13.69-8C1765.63,821.5,1765.71,820.34,1764.54,819.66Z"/><path class="cls-13" d="M1505.84,694.43,1491.16,686a4.9,4.9,0,0,0-4.45.13l-13.69,8c-1.28.74-1.36,1.9-.18,2.58l14.67,8.47A4.9,4.9,0,0,0,1492,705l13.69-8C1506.93,696.26,1507,695.11,1505.84,694.43Z"/><path class="cls-13" d="M1483.29,681.41l-14.67-8.47a4.9,4.9,0,0,0-4.45.12l-13.69,8c-1.29.75-1.37,1.9-.19,2.58l14.67,8.48a4.92,4.92,0,0,0,4.46-.13l13.69-8C1484.39,683.25,1484.47,682.09,1483.29,681.41Z"/><path class="cls-13" d="M1460.74,668.39l-14.67-8.47a4.9,4.9,0,0,0-4.45.12l-13.69,8c-1.28.75-1.37,1.91-.19,2.59l14.68,8.47a4.93,4.93,0,0,0,4.45-.12l13.69-8C1461.84,670.23,1461.92,669.07,1460.74,668.39Z"/><path class="cls-13" d="M1438.2,655.37l-14.68-8.47a4.9,4.9,0,0,0-4.45.13l-13.69,8c-1.28.75-1.36,1.91-.18,2.59l14.67,8.47a4.9,4.9,0,0,0,4.45-.12l13.69-8C1439.29,657.21,1439.38,656.05,1438.2,655.37Z"/><path class="cls-13" d="M1416.37,668.13l-14.68-8.47a4.9,4.9,0,0,0-4.45.12l-4.53,2.64c-1.28.75-1.36,1.91-.18,2.59l14.67,8.47a4.9,4.9,0,0,0,4.45-.12l4.53-2.65C1417.46,670,1417.54,668.81,1416.37,668.13Z"/><path class="cls-13" d="M1445.79,685.12l-14.67-8.48a4.92,4.92,0,0,0-4.46.13l-4.52,2.64c-1.28.75-1.37,1.91-.19,2.59l14.68,8.47a4.93,4.93,0,0,0,4.45-.12l4.52-2.65C1446.88,687,1447,685.8,1445.79,685.12Z"/><path class="cls-13" d="M1468.24,698.08l-14.67-8.47a4.9,4.9,0,0,0-4.45.12l-4.53,2.64c-1.28.75-1.36,1.91-.18,2.59l14.67,8.47a4.9,4.9,0,0,0,4.45-.12l4.53-2.64C1469.34,699.92,1469.42,698.76,1468.24,698.08Z"/><path class="cls-13" d="M1490.7,711,1476,702.57a4.93,4.93,0,0,0-4.45.12l-4.53,2.65c-1.28.75-1.36,1.9-.18,2.58l14.67,8.48a4.9,4.9,0,0,0,4.45-.13l4.53-2.64C1491.79,712.88,1491.87,711.72,1490.7,711Z"/><path class="cls-13" d="M1513.15,724l-14.67-8.48a4.92,4.92,0,0,0-4.46.13l-4.52,2.64c-1.28.75-1.37,1.91-.19,2.59l14.68,8.47a4.93,4.93,0,0,0,4.45-.12l4.52-2.65C1514.24,725.84,1514.33,724.69,1513.15,724Z"/><path class="cls-13" d="M1638.5,796.38l-14.67-8.47a4.9,4.9,0,0,0-4.45.12l-4.53,2.64c-1.28.75-1.36,1.91-.19,2.59l14.68,8.47a4.9,4.9,0,0,0,4.45-.12l4.53-2.65C1639.6,798.22,1639.68,797.06,1638.5,796.38Z"/><path class="cls-13" d="M1661,809.34l-14.67-8.47a4.9,4.9,0,0,0-4.45.12l-4.53,2.65c-1.28.75-1.36,1.9-.18,2.58l14.67,8.48a4.9,4.9,0,0,0,4.45-.13l4.53-2.64C1662.05,811.18,1662.13,810,1661,809.34Z"/><path class="cls-13" d="M1683.41,822.3l-14.68-8.47a4.9,4.9,0,0,0-4.45.13l-4.52,2.64c-1.28.75-1.37,1.91-.19,2.59l14.67,8.47a5,5,0,0,0,4.46-.12l4.52-2.65C1684.5,824.14,1684.59,823,1683.41,822.3Z"/><path class="cls-13" d="M1705.86,835.27l-14.67-8.47a4.9,4.9,0,0,0-4.45.12l-4.53,2.64c-1.28.75-1.36,1.91-.19,2.59l14.68,8.47a4.9,4.9,0,0,0,4.45-.12l4.52-2.65C1707,837.11,1707,836,1705.86,835.27Z"/><path class="cls-13" d="M1528.5,707.51,1513.83,699a4.92,4.92,0,0,0-4.46.12l-13.69,8c-1.28.75-1.36,1.9-.18,2.59l14.67,8.47a4.9,4.9,0,0,0,4.45-.13l13.69-8C1529.59,709.35,1529.68,708.19,1528.5,707.51Z"/><path class="cls-13" d="M1551.16,720.59l-14.68-8.47a4.9,4.9,0,0,0-4.45.12l-13.69,8c-1.28.75-1.36,1.91-.18,2.59l14.67,8.47a4.93,4.93,0,0,0,4.45-.12l13.69-8C1552.25,722.43,1552.34,721.27,1551.16,720.59Z"/><path class="cls-13" d="M1573.82,733.67l-14.68-8.47a4.9,4.9,0,0,0-4.45.13l-13.69,8c-1.28.75-1.36,1.91-.18,2.59l14.67,8.47a4.9,4.9,0,0,0,4.45-.12l13.69-8C1574.91,735.51,1575,734.35,1573.82,733.67Z"/><path class="cls-13" d="M1596.48,746.76l-14.68-8.47a4.87,4.87,0,0,0-4.45.12l-13.69,8c-1.28.74-1.36,1.9-.18,2.58l14.67,8.47a4.9,4.9,0,0,0,4.45-.12l13.69-8C1597.57,748.59,1597.66,747.44,1596.48,746.76Z"/><path class="cls-13" d="M1619.14,759.84l-14.68-8.47a4.9,4.9,0,0,0-4.45.12l-13.69,8c-1.28.75-1.36,1.91-.18,2.59l14.67,8.47a4.9,4.9,0,0,0,4.45-.13l13.69-8C1620.23,761.68,1620.32,760.52,1619.14,759.84Z"/><path class="cls-13" d="M1641.8,772.92l-14.68-8.47a4.93,4.93,0,0,0-4.45.12l-13.69,8c-1.28.75-1.36,1.91-.18,2.59l14.67,8.47a4.9,4.9,0,0,0,4.45-.12l13.69-8C1642.89,774.76,1643,773.6,1641.8,772.92Z"/><path class="cls-13" d="M1664.46,786l-14.68-8.47a4.9,4.9,0,0,0-4.45.13l-13.69,8c-1.28.75-1.36,1.91-.18,2.59l14.67,8.47a4.9,4.9,0,0,0,4.45-.12l13.69-8C1665.55,787.84,1665.64,786.68,1664.46,786Z"/><path class="cls-13" d="M1687.12,799.09l-14.68-8.47a4.9,4.9,0,0,0-4.45.12l-13.69,8c-1.28.75-1.36,1.9-.18,2.58l14.67,8.48a4.9,4.9,0,0,0,4.45-.13l13.69-8C1688.21,800.93,1688.29,799.77,1687.12,799.09Z"/><path class="cls-13" d="M1709.78,812.17l-14.68-8.47a4.9,4.9,0,0,0-4.45.12l-13.69,8c-1.28.75-1.36,1.91-.18,2.59l14.67,8.47a4.9,4.9,0,0,0,4.45-.13l13.69-8C1710.87,814,1711,812.85,1709.78,812.17Z"/><path class="cls-13" d="M1527.43,634.52l-43.21-24.95a4.92,4.92,0,0,0-4.46.12l-13.69,8c-1.28.75-1.36,1.9-.18,2.58l43.21,25a4.92,4.92,0,0,0,4.46-.12l13.68-8C1528.53,636.35,1528.61,635.2,1527.43,634.52Z"/><path class="cls-13" d="M1805.81,795.24l-43.21-25a4.9,4.9,0,0,0-4.45.12l-13.69,8c-1.28.75-1.37,1.91-.19,2.59l43.21,25a4.92,4.92,0,0,0,4.46-.13l13.69-8C1806.91,797.08,1807,795.92,1805.81,795.24Z"/><path class="cls-13" d="M1763.78,743.6l-14.67-8.47a4.93,4.93,0,0,0-4.45.12l-16.31,9.53c-1.28.75-1.36,1.91-.19,2.59l14.68,8.47a4.93,4.93,0,0,0,4.45-.12l16.31-9.53C1764.88,745.44,1765,744.28,1763.78,743.6Z"/><path class="cls-13" d="M1599.23,648.6l-23.47-13.55a4.9,4.9,0,0,0-4.45.12L1555,644.7c-1.28.75-1.36,1.9-.19,2.58l23.47,13.55a4.9,4.9,0,0,0,4.45-.12l16.31-9.53C1600.32,650.43,1600.41,649.28,1599.23,648.6Z"/><path class="cls-13" d="M1742,731l-23.47-13.55a4.9,4.9,0,0,0-4.45.12l-16.31,9.53c-1.28.75-1.36,1.91-.18,2.59L1721,743.23a4.92,4.92,0,0,0,4.46-.12l16.3-9.53C1743.05,732.83,1743.13,731.68,1742,731Z"/><path class="cls-13" d="M1631.92,667.47l-23.47-13.55a4.9,4.9,0,0,0-4.45.13l-16.31,9.52c-1.28.75-1.36,1.91-.18,2.59L1611,679.71a4.92,4.92,0,0,0,4.46-.13l16.3-9.52C1633,669.31,1633.1,668.15,1631.92,667.47Z"/><path class="cls-13" d="M1587.67,666.25l102,58.91a4.92,4.92,0,0,0,4.45.06l16.63-9.72c1.2-.69,1.14-1.85-.13-2.58l-102-58.91Z"/><path class="cls-13" d="M1805.52,779.86l16.34,9.44a4,4,0,0,0,3.65-.1l6.67-3.9c1-.61,1.12-1.56.16-2.12L1816,773.74a4,4,0,0,0-3.65.11l-6.67,3.89C1804.62,778.36,1804.55,779.31,1805.52,779.86Z"/><path class="cls-13" d="M1782.67,766.67l16.35,9.44a4,4,0,0,0,3.64-.1l6.68-3.9c1.05-.61,1.11-1.56.15-2.12l-16.35-9.44a4.06,4.06,0,0,0-3.65.1l-6.67,3.9C1781.77,765.16,1781.71,766.11,1782.67,766.67Z"/><path class="cls-13" d="M1760,753.59l16.35,9.44a4,4,0,0,0,3.64-.11l6.68-3.89c1-.62,1.11-1.57.15-2.12l-16.35-9.44a4,4,0,0,0-3.65.1l-6.67,3.9C1759.11,752.08,1759.05,753,1760,753.59Z"/><path class="cls-13" d="M1770.89,773.56l16.34,9.43a4,4,0,0,0,3.65-.1l6.67-3.9c1-.61,1.12-1.56.16-2.12l-16.35-9.43a4,4,0,0,0-3.65.1l-6.67,3.9C1770,772.05,1769.92,773,1770.89,773.56Z"/></g></g></g><g class="cls-24"><path class="cls-13" d="M1203.11,786.55l-14.53-8.39c-1.17-.67-1-1.85.32-2.62l17.15-9.91a5.11,5.11,0,0,1,4.56-.19l14.53,8.39c1.17.68,1,1.85-.33,2.63l-17.15,9.91A5.06,5.06,0,0,1,1203.11,786.55Z"/><path class="cls-13" d="M1225.55,799.51,1211,791.12c-1.17-.67-1-1.85.32-2.63l17.16-9.9a5.06,5.06,0,0,1,4.55-.19l14.53,8.39c1.17.67,1,1.85-.33,2.63l-17.15,9.9A5.06,5.06,0,0,1,1225.55,799.51Z"/><path class="cls-13" d="M1248,812.47l-14.53-8.39c-1.17-.68-1-1.85.32-2.63l17.16-9.9a5,5,0,0,1,4.55-.19l14.53,8.39c1.17.67,1,1.85-.33,2.63l-17.15,9.9A5.06,5.06,0,0,1,1248,812.47Z"/><path class="cls-13" d="M1279,801.77l-14.53-8.39c-1.17-.68-1-1.85.32-2.63l14.4-8.31a5,5,0,0,1,4.55-.19l14.53,8.39c1.17.67,1,1.85-.32,2.63l-14.4,8.31A5.06,5.06,0,0,1,1279,801.77Z"/><path class="cls-13" d="M1301.47,814.72l-14.53-8.39c-1.17-.67-1-1.85.32-2.62l14.4-8.32a5.06,5.06,0,0,1,4.55-.19l14.54,8.39c1.16.68,1,1.85-.33,2.63l-14.4,8.32A5.06,5.06,0,0,1,1301.47,814.72Z"/><path class="cls-13" d="M1323.91,827.68l-14.53-8.39c-1.17-.67-1-1.85.33-2.63l14.39-8.31a5.08,5.08,0,0,1,4.56-.19l14.53,8.39c1.16.67,1,1.85-.33,2.63l-14.4,8.31A5.06,5.06,0,0,1,1323.91,827.68Z"/><path class="cls-13" d="M1346.35,840.64l-14.53-8.39c-1.17-.68-1-1.85.33-2.63l14.4-8.31a5,5,0,0,1,4.55-.19l14.53,8.39c1.17.67,1,1.85-.33,2.63l-14.4,8.31A5.06,5.06,0,0,1,1346.35,840.64Z"/><path class="cls-13" d="M1368.79,853.59l-14.53-8.39c-1.17-.67-1-1.85.33-2.62l14.4-8.32a5.06,5.06,0,0,1,4.55-.19l14.53,8.39c1.17.68,1,1.85-.33,2.63l-14.39,8.31A5,5,0,0,1,1368.79,853.59Z"/><path class="cls-13" d="M1391.23,866.55l-14.53-8.39c-1.16-.67-1-1.85.33-2.63l14.4-8.31A5.06,5.06,0,0,1,1396,847l14.53,8.39c1.17.67,1,1.85-.32,2.63l-14.4,8.31A5.08,5.08,0,0,1,1391.23,866.55Z"/><path class="cls-13" d="M1413.68,879.51l-14.54-8.39c-1.16-.68-1-1.85.33-2.63l14.4-8.31a5,5,0,0,1,4.55-.19l14.53,8.39c1.17.67,1,1.85-.32,2.62l-14.4,8.32A5.06,5.06,0,0,1,1413.68,879.51Z"/><path class="cls-13" d="M1436.12,892.46l-14.53-8.39c-1.17-.67-1-1.85.32-2.62l14.4-8.32a5.06,5.06,0,0,1,4.55-.19l14.53,8.39c1.17.68,1,1.85-.32,2.63l-14.4,8.31A5,5,0,0,1,1436.12,892.46Z"/><path class="cls-13" d="M1458.56,905.42,1444,897c-1.17-.67-1-1.85.32-2.63l14.4-8.31a5.06,5.06,0,0,1,4.55-.19l14.54,8.39c1.16.67,1,1.85-.33,2.63l-14.4,8.31A5.06,5.06,0,0,1,1458.56,905.42Z"/><path class="cls-13" d="M1481,918.38,1466.47,910c-1.17-.68-1-1.85.33-2.63l14.39-8.31a5,5,0,0,1,4.56-.19l14.53,8.39c1.16.67,1,1.85-.33,2.62l-14.4,8.32A5.06,5.06,0,0,1,1481,918.38Z"/><path class="cls-13" d="M1312.09,795.63l-14.53-8.39c-1.16-.67-1-1.85.33-2.63l14.4-8.31a5.06,5.06,0,0,1,4.55-.19l14.53,8.39c1.17.68,1,1.85-.33,2.63l-14.39,8.31A5,5,0,0,1,1312.09,795.63Z"/><path class="cls-13" d="M1289.32,782.48l-14.53-8.39c-1.17-.67-1-1.85.32-2.62l14.4-8.32a5.06,5.06,0,0,1,4.55-.19l14.53,8.39c1.17.68,1,1.85-.32,2.63l-14.4,8.31A5,5,0,0,1,1289.32,782.48Z"/><path class="cls-13" d="M1266.5,769.31l-31.29-18.07c-1.17-.67-1-1.85.32-2.63l14.4-8.31a5.06,5.06,0,0,1,4.55-.19l31.3,18.07c1.17.68,1,1.85-.33,2.63l-14.39,8.31A5,5,0,0,1,1266.5,769.31Z"/><path class="cls-13" d="M1282.45,753.29l-25.4-14.66c-1.17-.67-1-1.85.33-2.63l14.4-8.31a5.06,5.06,0,0,1,4.55-.19l25.4,14.66c1.16.68,1,1.85-.33,2.63L1287,753.1A5,5,0,0,1,1282.45,753.29Z"/><path class="cls-13" d="M1334.53,808.59,1320,800.2c-1.16-.67-1-1.85.33-2.63l14.4-8.31a5.06,5.06,0,0,1,4.55-.19l14.53,8.39c1.17.67,1,1.85-.32,2.63l-14.4,8.31A5.08,5.08,0,0,1,1334.53,808.59Z"/><path class="cls-13" d="M1357,821.55l-14.54-8.39c-1.16-.68-1-1.85.33-2.63l14.4-8.31a5,5,0,0,1,4.55-.19l14.53,8.39c1.17.67,1,1.85-.32,2.62l-14.4,8.32A5.06,5.06,0,0,1,1357,821.55Z"/><path class="cls-13" d="M1379.42,834.5l-14.53-8.39c-1.17-.67-1-1.85.32-2.63l14.4-8.31a5.06,5.06,0,0,1,4.55-.19l14.54,8.39c1.16.68,1,1.85-.33,2.63l-14.4,8.31A5,5,0,0,1,1379.42,834.5Z"/><path class="cls-13" d="M1401.86,847.46l-14.53-8.39c-1.17-.67-1-1.85.32-2.63l14.4-8.31a5.06,5.06,0,0,1,4.55-.19l14.54,8.39c1.16.67,1,1.85-.33,2.63l-14.4,8.31A5.06,5.06,0,0,1,1401.86,847.46Z"/><path class="cls-13" d="M1424.3,860.42,1409.77,852c-1.17-.68-1-1.85.33-2.63l14.39-8.32a5.08,5.08,0,0,1,4.56-.18l14.53,8.39c1.16.67,1,1.85-.33,2.62l-14.4,8.32A5.09,5.09,0,0,1,1424.3,860.42Z"/><path class="cls-13" d="M1446.74,873.37,1432.21,865c-1.17-.67-1-1.85.33-2.63l14.4-8.31a5.06,5.06,0,0,1,4.55-.19l14.53,8.39c1.17.68,1,1.85-.33,2.63l-14.4,8.31A5,5,0,0,1,1446.74,873.37Z"/><path class="cls-13" d="M1469.18,886.33l-14.53-8.39c-1.17-.67-1-1.85.33-2.63l14.4-8.31a5.06,5.06,0,0,1,4.55-.19l14.53,8.39c1.17.67,1,1.85-.33,2.63l-14.39,8.31A5.08,5.08,0,0,1,1469.18,886.33Z"/><path class="cls-13" d="M1491.62,899.29l-14.53-8.39c-1.16-.68-1-1.85.33-2.63l14.4-8.32a5.06,5.06,0,0,1,4.55-.18l14.53,8.39c1.17.67,1,1.85-.32,2.62l-14.4,8.32A5.11,5.11,0,0,1,1491.62,899.29Z"/><path class="cls-13" d="M1514.07,912.24l-14.54-8.39c-1.16-.67-1-1.85.33-2.63l14.4-8.31a5.06,5.06,0,0,1,4.55-.19l14.53,8.39c1.17.68,1,1.85-.32,2.63l-14.4,8.31A5,5,0,0,1,1514.07,912.24Z"/><path class="cls-13" d="M1554,935.28,1522.25,917c-1.16-.67-1-1.85.33-2.63L1537,906a5.06,5.06,0,0,1,4.55-.19l31.71,18.31c1.17.67,1,1.85-.33,2.62l-14.4,8.32A5.09,5.09,0,0,1,1554,935.28Z"/><path class="cls-13" d="M1597.65,910.05l-26.76-15.45c-1.17-.67-1-1.85.33-2.63l14.4-8.31a5.06,5.06,0,0,1,4.55-.19l26.76,15.45c1.17.68,1,1.85-.33,2.63l-14.4,8.31A5.06,5.06,0,0,1,1597.65,910.05Z"/><path class="cls-13" d="M1373.83,806.05l-14.53-8.39c-1.16-.67-1-1.85.33-2.62l14.4-8.32a5.09,5.09,0,0,1,4.55-.19l14.53,8.39c1.17.68,1,1.86-.32,2.63l-14.4,8.32A5.08,5.08,0,0,1,1373.83,806.05Z"/><path class="cls-13" d="M1350.83,792.78l-14.53-8.39c-1.16-.68-1-1.85.33-2.63l14.4-8.32a5.06,5.06,0,0,1,4.55-.18l14.53,8.39c1.17.67,1,1.85-.32,2.62l-14.4,8.32A5.11,5.11,0,0,1,1350.83,792.78Z"/><path class="cls-13" d="M1327.84,779.5l-14.54-8.39c-1.16-.68-1-1.85.33-2.63l14.4-8.31a5,5,0,0,1,4.55-.19l14.53,8.39c1.17.67,1,1.85-.32,2.63l-14.4,8.31A5.06,5.06,0,0,1,1327.84,779.5Z"/><path class="cls-13" d="M1304.84,766.22l-14.54-8.39c-1.16-.68-1-1.85.33-2.63l14.4-8.31a5,5,0,0,1,4.55-.19l14.53,8.39c1.17.67,1,1.85-.32,2.63l-14.4,8.31A5.06,5.06,0,0,1,1304.84,766.22Z"/><path class="cls-13" d="M1396.28,819l-14.54-8.39c-1.16-.67-1-1.85.33-2.63l14.4-8.31a5.06,5.06,0,0,1,4.55-.19l14.53,8.39c1.17.67,1,1.85-.32,2.63l-14.4,8.31A5.06,5.06,0,0,1,1396.28,819Z"/><path class="cls-13" d="M1418.72,832l-14.53-8.39c-1.17-.68-1-1.85.32-2.63l14.4-8.31a5,5,0,0,1,4.55-.19l14.53,8.39c1.17.67,1,1.85-.32,2.63l-14.4,8.31A5.06,5.06,0,0,1,1418.72,832Z"/><path class="cls-13" d="M1441.16,844.92l-14.53-8.39c-1.17-.67-1-1.85.32-2.62l14.4-8.32a5.09,5.09,0,0,1,4.55-.19l14.54,8.39c1.16.68,1,1.85-.33,2.63l-14.4,8.32A5.06,5.06,0,0,1,1441.16,844.92Z"/><path class="cls-13" d="M1463.6,857.88l-14.53-8.39c-1.17-.67-1-1.85.33-2.63l14.39-8.31a5.08,5.08,0,0,1,4.56-.19l14.53,8.39c1.16.67,1,1.85-.33,2.63l-14.4,8.31A5.06,5.06,0,0,1,1463.6,857.88Z"/><path class="cls-13" d="M1486,870.84l-14.53-8.39c-1.17-.68-1-1.85.33-2.63l14.4-8.31a5,5,0,0,1,4.55-.19l14.53,8.39c1.17.67,1,1.85-.33,2.63l-14.4,8.31A5.06,5.06,0,0,1,1486,870.84Z"/><path class="cls-13" d="M1508.48,883.79,1494,875.4c-1.17-.67-1-1.85.33-2.62l14.4-8.32a5.06,5.06,0,0,1,4.55-.19l14.53,8.39c1.17.68,1,1.85-.33,2.63L1513,883.61A5.08,5.08,0,0,1,1508.48,883.79Z"/><path class="cls-13" d="M1530.92,896.75l-14.53-8.39c-1.16-.67-1-1.85.33-2.63l14.4-8.31a5.06,5.06,0,0,1,4.55-.19l14.53,8.39c1.17.67,1,1.85-.32,2.63l-14.4,8.31A5.08,5.08,0,0,1,1530.92,896.75Z"/><path class="cls-13" d="M1553.37,909.71l-14.54-8.39c-1.16-.68-1-1.85.33-2.63l14.4-8.31a5,5,0,0,1,4.55-.19l14.53,8.39c1.17.67,1,1.85-.32,2.63l-14.4,8.31A5.06,5.06,0,0,1,1553.37,909.71Z"/><path class="cls-13" d="M1575.81,922.66l-14.53-8.39c-1.17-.67-1-1.85.32-2.62l14.4-8.32a5.06,5.06,0,0,1,4.55-.19l14.53,8.39c1.17.68,1,1.85-.32,2.63l-14.4,8.31A5,5,0,0,1,1575.81,922.66Z"/><path class="cls-13" d="M1362,774l-14.53-8.39c-1.17-.68-1-1.85.32-2.63l14.4-8.31a5,5,0,0,1,4.55-.19l14.54,8.39c1.16.67,1,1.85-.33,2.63l-14.4,8.31A5.06,5.06,0,0,1,1362,774Z"/><path class="cls-13" d="M1339.69,761.12l-14.53-8.39c-1.17-.68-1-1.86.32-2.63l14.4-8.32a5.06,5.06,0,0,1,4.55-.18L1359,750c1.16.67,1,1.85-.33,2.62l-14.4,8.32A5.09,5.09,0,0,1,1339.69,761.12Z"/><path class="cls-13" d="M1317.36,748.22l-14.53-8.39c-1.17-.67-1-1.85.32-2.63l14.4-8.31a5.06,5.06,0,0,1,4.55-.19l14.54,8.39c1.16.68,1,1.85-.33,2.63l-14.4,8.31A5,5,0,0,1,1317.36,748.22Z"/><path class="cls-13" d="M1295,735.33l-14.53-8.39c-1.17-.67-1-1.85.32-2.63l14.4-8.31a5.06,5.06,0,0,1,4.55-.19l14.54,8.39c1.16.67,1,1.85-.33,2.63l-14.4,8.31A5.06,5.06,0,0,1,1295,735.33Z"/><path class="cls-13" d="M1318,722.07l-14.53-8.39c-1.17-.67-1-1.85.33-2.62l4.76-2.75a5.06,5.06,0,0,1,4.55-.19l14.53,8.39c1.17.67,1,1.85-.33,2.63l-4.76,2.75A5.06,5.06,0,0,1,1318,722.07Z"/><path class="cls-13" d="M1347.13,738.9l-14.53-8.39c-1.17-.68-1-1.85.33-2.63l4.76-2.75a5.06,5.06,0,0,1,4.55-.19l14.53,8.39c1.17.68,1,1.85-.33,2.63l-4.76,2.75A5.06,5.06,0,0,1,1347.13,738.9Z"/><path class="cls-13" d="M1369.37,751.74l-14.53-8.39c-1.17-.68-1-1.85.32-2.63l4.76-2.75a5.06,5.06,0,0,1,4.55-.19l14.54,8.39c1.16.68,1,1.85-.33,2.63l-4.76,2.75A5.06,5.06,0,0,1,1369.37,751.74Z"/><path class="cls-13" d="M1391.6,764.58l-14.53-8.39c-1.16-.68-1-1.86.33-2.63l4.76-2.75a5.06,5.06,0,0,1,4.55-.19l14.53,8.39c1.17.67,1,1.85-.32,2.63l-4.76,2.75A5.11,5.11,0,0,1,1391.6,764.58Z"/><path class="cls-13" d="M1413.84,777.41,1399.31,769c-1.17-.67-1-1.85.33-2.62l4.76-2.75a5,5,0,0,1,4.55-.19l14.53,8.39c1.17.67,1,1.85-.33,2.63l-4.76,2.74A5,5,0,0,1,1413.84,777.41Z"/><path class="cls-13" d="M1538,849.09l-14.54-8.39c-1.16-.68-1-1.85.33-2.63l4.76-2.75a5.06,5.06,0,0,1,4.55-.19l14.53,8.39c1.17.68,1,1.85-.32,2.63l-4.76,2.75A5.06,5.06,0,0,1,1538,849.09Z"/><path class="cls-13" d="M1560.22,861.93l-14.53-8.39c-1.17-.68-1-1.85.33-2.63l4.76-2.75a5.06,5.06,0,0,1,4.55-.19l14.53,8.39c1.17.68,1,1.85-.33,2.63l-4.76,2.75A5.06,5.06,0,0,1,1560.22,861.93Z"/><path class="cls-13" d="M1582.46,874.76l-14.53-8.39c-1.17-.67-1-1.85.32-2.62L1573,861a5.08,5.08,0,0,1,4.56-.19l14.53,8.39c1.16.67,1,1.85-.33,2.63l-4.76,2.75A5.06,5.06,0,0,1,1582.46,874.76Z"/><path class="cls-13" d="M1604.69,887.6l-14.53-8.39c-1.16-.67-1-1.85.33-2.63l4.76-2.74a5,5,0,0,1,4.55-.19l14.53,8.39c1.17.67,1,1.85-.32,2.63l-4.76,2.74A5,5,0,0,1,1604.69,887.6Z"/><path class="cls-13" d="M1384.46,787l-14.53-8.39c-1.17-.67-1-1.85.32-2.62l14.4-8.32a5.06,5.06,0,0,1,4.55-.19l14.54,8.39c1.16.68,1,1.85-.33,2.63l-14.4,8.32A5.06,5.06,0,0,1,1384.46,787Z"/><path class="cls-13" d="M1406.9,799.92l-14.53-8.39c-1.17-.67-1-1.85.33-2.63l14.39-8.31a5.08,5.08,0,0,1,4.56-.19l14.53,8.39c1.16.67,1,1.85-.33,2.63l-14.4,8.31A5.06,5.06,0,0,1,1406.9,799.92Z"/><path class="cls-13" d="M1429.34,812.88l-14.53-8.39c-1.17-.68-1-1.85.33-2.63l14.4-8.31a5,5,0,0,1,4.55-.19l14.53,8.39c1.17.67,1,1.85-.33,2.63l-14.4,8.31A5.06,5.06,0,0,1,1429.34,812.88Z"/><path class="cls-13" d="M1451.78,825.83l-14.53-8.39c-1.17-.67-1-1.85.33-2.62l14.4-8.32a5.06,5.06,0,0,1,4.55-.19l14.53,8.39c1.17.68,1,1.85-.33,2.63l-14.39,8.31A5,5,0,0,1,1451.78,825.83Z"/><path class="cls-13" d="M1474.22,838.79l-14.53-8.39c-1.16-.67-1-1.85.33-2.63l14.4-8.31a5.06,5.06,0,0,1,4.55-.19l14.53,8.39c1.17.67,1,1.85-.32,2.63l-14.4,8.31A5.08,5.08,0,0,1,1474.22,838.79Z"/><path class="cls-13" d="M1496.67,851.75l-14.54-8.39c-1.16-.68-1-1.85.33-2.63l14.4-8.31a5,5,0,0,1,4.55-.19l14.53,8.39c1.17.67,1,1.85-.32,2.62l-14.4,8.32A5.06,5.06,0,0,1,1496.67,851.75Z"/><path class="cls-13" d="M1519.11,864.7l-14.53-8.39c-1.17-.67-1-1.85.32-2.62l14.4-8.32a5.06,5.06,0,0,1,4.55-.19l14.54,8.39c1.16.68,1,1.85-.33,2.63l-14.4,8.31A5,5,0,0,1,1519.11,864.7Z"/><path class="cls-13" d="M1541.55,877.66,1527,869.27c-1.17-.67-1-1.85.32-2.63l14.4-8.31a5.06,5.06,0,0,1,4.55-.19l14.54,8.39c1.16.67,1,1.85-.33,2.63l-14.4,8.31A5.06,5.06,0,0,1,1541.55,877.66Z"/><path class="cls-13" d="M1564,890.62l-14.53-8.39c-1.17-.68-1-1.85.33-2.63l14.39-8.31a5,5,0,0,1,4.56-.19l14.53,8.39c1.16.67,1,1.85-.33,2.62l-14.4,8.32A5.06,5.06,0,0,1,1564,890.62Z"/><path class="cls-13" d="M1256.16,788.56l-42.8-24.71c-1.17-.67-1-1.85.33-2.62l14.4-8.32a5.09,5.09,0,0,1,4.55-.19l42.8,24.71c1.16.68,1,1.85-.33,2.63l-14.4,8.31A5,5,0,0,1,1256.16,788.56Z"/><path class="cls-13" d="M1531.86,947.74,1489.06,923c-1.17-.67-1-1.85.33-2.63l14.39-8.31a5.08,5.08,0,0,1,4.56-.19l42.79,24.71c1.17.67,1,1.85-.32,2.63l-14.4,8.31A5.06,5.06,0,0,1,1531.86,947.74Z"/><path class="cls-13" d="M1442.11,924.54l-14.53-8.39c-1.17-.67-1-1.85.32-2.63l17.16-9.9a5.06,5.06,0,0,1,4.55-.19l14.53,8.39c1.17.68,1,1.85-.33,2.63l-17.15,9.9A5,5,0,0,1,1442.11,924.54Z"/><path class="cls-13" d="M1279.14,830.45,1255.9,817c-1.17-.67-1-1.85.33-2.62l17.15-9.91a5.06,5.06,0,0,1,4.55-.19l23.24,13.42c1.17.68,1,1.85-.33,2.63l-17.15,9.9A5,5,0,0,1,1279.14,830.45Z"/><path class="cls-13" d="M1420.49,912.06l-23.24-13.42c-1.17-.67-1-1.85.32-2.63l17.16-9.9a5.06,5.06,0,0,1,4.55-.19l23.24,13.42c1.17.67,1,1.85-.33,2.63l-17.15,9.9A5.06,5.06,0,0,1,1420.49,912.06Z"/><path class="cls-13" d="M1311.52,849.15l-23.24-13.42c-1.17-.68-1-1.85.32-2.63l17.16-9.9a5,5,0,0,1,4.55-.19l23.24,13.42c1.17.67,1,1.85-.33,2.62L1316.07,849A5.09,5.09,0,0,1,1311.52,849.15Z"/><path class="cls-13" d="M1310.47,823.1l101,58.34c1.25.72,1.25,1.89,0,2.62L1394,894.16a5,5,0,0,1-4.54,0l-101-58.34Z"/><path class="cls-13" d="M1504.83,948l16.19,9.35c1,.55.83,1.52-.27,2.15l-7,4.05a4.14,4.14,0,0,1-3.73.16l-16.19-9.35c-1-.55-.83-1.51.27-2.15l7-4A4.14,4.14,0,0,1,1504.83,948Z"/><path class="cls-13" d="M1482.2,935l16.19,9.35c1,.55.84,1.51-.27,2.15l-7,4a4.14,4.14,0,0,1-3.73.16l-16.18-9.35c-1-.55-.84-1.52.26-2.15l7-4.06A4.18,4.18,0,0,1,1482.2,935Z"/><path class="cls-13" d="M1459.76,922l16.19,9.35c1,.55.83,1.52-.27,2.15l-7,4a4.14,4.14,0,0,1-3.73.16l-16.18-9.35c-1-.55-.84-1.51.26-2.15l7-4.05A4.14,4.14,0,0,1,1459.76,922Z"/><path class="cls-13" d="M1494.6,927.82l16.18,9.34c1,.55.84,1.52-.27,2.15l-7,4.06a4.18,4.18,0,0,1-3.73.15l-16.19-9.35c-1-.55-.84-1.51.27-2.15l7-4A4.13,4.13,0,0,1,1494.6,927.82Z"/></g><path class="cls-10" d="M1723.54,578.65a6.8,6.8,0,0,1-3.39-1c-3.43-2-5.56-6.47-4.74-10a5,5,0,0,1,2.84-3.62,6,6,0,0,1,5.39.57c3.43,2,5.56,6.48,4.74,10a4.84,4.84,0,0,1-4.84,4Zm-3.28-13.44a3.29,3.29,0,0,0-3.33,2.81c-.68,2.92,1.12,6.65,4,8.31a4.46,4.46,0,0,0,4,.49,3.47,3.47,0,0,0,1.95-2.54c.67-2.91-1.13-6.64-4-8.31A5.29,5.29,0,0,0,1720.26,565.21Z"/><path class="cls-10" d="M1742,589.34a6.75,6.75,0,0,1-3.38-1c-3.44-2-5.56-6.47-4.75-10a5,5,0,0,1,2.85-3.61,6,6,0,0,1,5.38.57c3.43,2,5.56,6.47,4.75,10a4.89,4.89,0,0,1-4.85,4Zm-3.28-13.45a3.34,3.34,0,0,0-1.38.28,3.47,3.47,0,0,0-2,2.54c-.67,2.91,1.12,6.64,4,8.31a4.5,4.5,0,0,0,4,.49,3.5,3.5,0,0,0,1.95-2.54c.68-2.92-1.12-6.65-4-8.32A5.29,5.29,0,0,0,1738.76,575.89Z"/><path class="cls-10" d="M1764.63,595.83c-.74,3.23-3.91,4.37-7.08,2.54s-5.12-5.93-4.37-9.16,3.91-4.37,7.08-2.55S1765.38,592.59,1764.63,595.83Z"/><polygon class="cls-10" points="1409.85 391.65 1399.95 385.94 1400.71 381.36 1410.61 387.08 1409.85 391.65"/><polygon class="cls-10" points="1424.23 399.96 1414.33 394.25 1415.1 389.67 1425 395.38 1424.23 399.96"/><polygon class="cls-10" points="1395.61 383.43 1373.9 370.9 1374.67 366.33 1396.37 378.86 1395.61 383.43"/><polygon class="cls-10" points="1398.34 469.77 1381.78 460.21 1382.42 456.38 1398.98 465.94 1398.34 469.77"/><polygon class="cls-10" points="1412.47 477.94 1404.19 473.15 1404.84 469.32 1413.12 474.11 1412.47 477.94"/><polygon class="cls-10" points="1401.72 481.57 1394.66 477.5 1395.31 473.67 1402.36 477.75 1401.72 481.57"/><polygon class="cls-10" points="1413.54 488.4 1405.26 483.62 1405.9 479.79 1414.18 484.57 1413.54 488.4"/><polygon class="cls-10" points="1425.7 505.27 1393.16 486.48 1393.8 482.65 1426.35 501.44 1425.7 505.27"/><polygon class="cls-10" points="1397.49 580.42 1364.95 561.63 1365.59 557.8 1398.13 576.59 1397.49 580.42"/><polygon class="cls-10" points="1410.01 587.64 1401.73 582.86 1402.37 579.03 1410.65 583.82 1410.01 587.64"/><polygon class="cls-10" points="1398.71 499.53 1391.65 495.45 1392.3 491.63 1399.35 495.7 1398.71 499.53"/><polygon class="cls-10" points="1410.53 506.35 1402.25 501.57 1402.89 497.74 1411.17 502.52 1410.53 506.35"/><polygon class="cls-10" points="1408.04 514.76 1390.15 504.43 1390.79 500.6 1408.68 510.93 1408.04 514.76"/><polygon class="cls-10" points="1420.02 521.67 1411.74 516.89 1412.38 513.07 1420.66 517.85 1420.02 521.67"/><polygon class="cls-10" points="1432.06 528.63 1423.77 523.84 1424.42 520.02 1432.7 524.8 1432.06 528.63"/><polygon class="cls-10" points="1451.48 539.84 1435.81 530.79 1436.45 526.97 1452.13 536.01 1451.48 539.84"/><polygon class="cls-10" points="1439.08 552.37 1430.8 547.59 1431.44 543.76 1439.72 548.55 1439.08 552.37"/><polygon class="cls-10" points="1458.51 563.59 1442.84 554.54 1443.48 550.72 1459.15 559.76 1458.51 563.59"/><polygon class="cls-10" points="1395.42 527.17 1387.14 522.38 1387.78 518.56 1396.06 523.34 1395.42 527.17"/><polygon class="cls-10" points="1407.46 534.12 1399.18 529.34 1399.82 525.51 1408.1 530.29 1407.46 534.12"/><polygon class="cls-10" points="1426.89 545.33 1411.22 536.29 1411.86 532.46 1427.53 541.51 1426.89 545.33"/><polygon class="cls-10" points="1452.35 550.19 1444.06 545.4 1444.7 541.58 1452.99 546.36 1452.35 550.19"/><polygon class="cls-10" points="1464.38 557.14 1456.1 552.36 1456.74 548.53 1465.03 553.31 1464.38 557.14"/><polygon class="cls-10" points="1483.81 568.35 1468.14 559.3 1468.78 555.48 1484.45 564.52 1483.81 568.35"/><polygon class="cls-10" points="1422.97 595.13 1414.68 590.34 1415.33 586.52 1423.61 591.3 1422.97 595.13"/><polygon class="cls-10" points="1442.39 606.34 1426.72 597.29 1427.37 593.47 1443.04 602.51 1442.39 606.34"/><polygon class="cls-10" points="1392.41 545.12 1384.13 540.34 1384.77 536.51 1393.05 541.29 1392.41 545.12"/><polygon class="cls-10" points="1411.84 556.34 1396.17 547.29 1396.81 543.46 1412.48 552.51 1411.84 556.34"/><polygon class="cls-10" points="1431.99 610.18 1423.7 605.4 1424.35 601.57 1432.63 606.35 1431.99 610.18"/><polygon class="cls-10" points="1451.41 621.4 1435.74 612.35 1436.39 608.52 1452.06 617.57 1451.41 621.4"/><polygon class="cls-10" points="1450.46 519.56 1442.18 514.78 1442.82 510.95 1451.1 515.73 1450.46 519.56"/><polygon class="cls-10" points="1437.94 512.33 1429.66 507.55 1430.3 503.72 1438.58 508.5 1437.94 512.33"/><polygon class="cls-10" points="1469.89 530.78 1454.22 521.73 1454.86 517.9 1470.53 526.95 1469.89 530.78"/><polygon class="cls-10" points="1396.12 517.72 1388.64 513.41 1389.29 509.58 1396.76 513.89 1396.12 517.72"/><polygon class="cls-10" points="1418.27 530.51 1400.11 520.03 1400.75 516.2 1418.92 526.69 1418.27 530.51"/><polygon class="cls-10" points="1440.43 543.31 1422.27 532.82 1422.91 528.99 1441.07 539.48 1440.43 543.31"/><polygon class="cls-10" points="1481.4 537.42 1473.93 533.11 1474.57 529.28 1482.04 533.59 1481.4 537.42"/><polygon class="cls-10" points="1503.56 550.21 1485.39 539.73 1486.04 535.9 1504.2 546.38 1503.56 550.21"/><polygon class="cls-10" points="1525.71 563.01 1507.55 552.52 1508.19 548.69 1526.36 559.18 1525.71 563.01"/><polygon class="cls-10" points="1403.96 541.94 1385.8 531.46 1386.44 527.63 1404.6 538.11 1403.96 541.94"/><polygon class="cls-10" points="1413.53 547.47 1407.95 544.25 1408.59 540.42 1414.17 543.64 1413.53 547.47"/><polygon class="cls-10" points="1423.13 553.01 1417.55 549.79 1418.19 545.96 1423.77 549.18 1423.13 553.01"/><polygon class="cls-10" points="1440.86 563.25 1427.14 555.33 1427.78 551.5 1441.51 559.42 1440.86 563.25"/><polygon class="cls-10" points="1460.75 545.19 1455.17 541.97 1455.81 538.14 1461.39 541.36 1460.75 545.19"/><polygon class="cls-10" points="1478.48 555.43 1464.76 547.51 1465.4 543.68 1479.13 551.6 1478.48 555.43"/><polygon class="cls-10" points="1482.21 557.58 1468.49 549.66 1469.13 545.83 1482.86 553.76 1482.21 557.58"/><polygon class="cls-10" points="1409.16 606.85 1391.27 596.52 1391.91 592.69 1409.8 603.02 1409.16 606.85"/><polygon class="cls-10" points="1421.13 613.76 1412.85 608.98 1413.49 605.15 1421.78 609.93 1421.13 613.76"/><polygon class="cls-10" points="1433.17 620.71 1424.89 615.93 1425.53 612.1 1433.82 616.88 1433.17 620.71"/><polygon class="cls-10" points="1452.6 631.93 1436.93 622.88 1437.57 619.05 1453.24 628.1 1452.6 631.93"/><polygon class="cls-10" points="1465.03 639.1 1456.75 634.32 1457.39 630.49 1465.67 635.27 1465.03 639.1"/><polygon class="cls-10" points="1484.46 650.32 1468.79 641.27 1469.43 637.44 1485.1 646.49 1484.46 650.32"/><polygon class="cls-10" points="1424.86 635.6 1416.58 630.82 1417.22 626.99 1425.5 631.77 1424.86 635.6"/><polygon class="cls-10" points="1444.29 646.82 1428.62 637.77 1429.26 633.94 1444.93 642.99 1444.29 646.82"/><polygon class="cls-10" points="1381.6 610.63 1373.32 605.85 1373.96 602.02 1382.24 606.8 1381.6 610.63"/><polygon class="cls-10" points="1393.64 617.58 1385.36 612.8 1386 608.97 1394.28 613.75 1393.64 617.58"/><polygon class="cls-10" points="1413.07 628.8 1397.4 619.75 1398.04 615.92 1413.71 624.97 1413.07 628.8"/><polygon class="cls-10" points="1397.23 609.81 1389.76 605.49 1390.4 601.66 1397.88 605.98 1397.23 609.81"/><polygon class="cls-10" points="1419.39 622.6 1401.23 612.12 1401.87 608.29 1420.03 618.77 1419.39 622.6"/><polygon class="cls-10" points="1441.55 635.39 1423.39 624.91 1424.03 621.08 1442.19 631.56 1441.55 635.39"/><polygon class="cls-10" points="1375.49 616.95 1357.33 606.46 1357.97 602.63 1376.13 613.12 1375.49 616.95"/><polygon class="cls-10" points="1385.06 622.47 1379.48 619.25 1380.13 615.42 1385.7 618.65 1385.06 622.47"/><polygon class="cls-10" points="1394.66 628.01 1389.08 624.79 1389.72 620.97 1395.3 624.18 1394.66 628.01"/><polygon class="cls-10" points="1412.4 638.25 1398.67 630.33 1399.32 626.5 1413.04 634.43 1412.4 638.25"/><polygon class="cls-10" points="1416.13 640.41 1402.4 632.49 1403.04 628.66 1416.77 636.58 1416.13 640.41"/><polygon class="cls-10" points="1383.67 582.28 1378.09 579.06 1378.73 575.24 1384.31 578.46 1383.67 582.28"/><polygon class="cls-10" points="1401.41 592.52 1387.68 584.6 1388.33 580.77 1402.05 588.7 1401.41 592.52"/><polygon class="cls-10" points="1419.53 602.99 1405.81 595.07 1406.45 591.24 1420.17 599.16 1419.53 602.99"/><polygon class="cls-10" points="1489.37 663 1481.09 658.22 1481.73 654.39 1490.01 659.17 1489.37 663"/><polygon class="cls-10" points="1508.8 674.22 1493.13 665.17 1493.77 661.34 1509.44 670.39 1508.8 674.22"/><polygon class="cls-10" points="1458.79 645.35 1445.07 637.42 1445.71 633.6 1459.43 641.52 1458.79 645.35"/><polygon class="cls-10" points="1476.91 655.81 1463.19 647.89 1463.83 644.06 1477.55 651.98 1476.91 655.81"/><polygon class="cls-10" points="1373.97 544.32 1368.39 541.1 1369.03 537.27 1374.61 540.49 1373.97 544.32"/><polygon class="cls-10" points="1391.71 554.56 1377.98 546.64 1378.63 542.81 1392.35 550.73 1391.71 554.56"/><polygon class="cls-10" points="1409.83 565.02 1396.11 557.1 1396.75 553.27 1410.47 561.2 1409.83 565.02"/><path class="cls-10" d="M1683.63,704.58a7.67,7.67,0,0,1-3.84-1.11l-110.92-64c-4.52-2.62-7.45-9.23-6.53-14.75l7.1-42.32a7.88,7.88,0,0,1,4.07-6.08,6.8,6.8,0,0,1,6.41.54l110.92,64c4.52,2.62,7.45,9.23,6.53,14.75l-7.1,42.31a7.86,7.86,0,0,1-4.07,6.09A6,6,0,0,1,1683.63,704.58Zm-107.55-127.3a4.47,4.47,0,0,0-1.91.42,6.35,6.35,0,0,0-3.19,4.93l-7.1,42.32c-.83,4.93,1.76,10.82,5.77,13.14l110.92,64a5.25,5.25,0,0,0,5,.48,6.39,6.39,0,0,0,3.2-4.94l7.09-42.31c.83-4.93-1.76-10.82-5.77-13.14l-110.92-64A6.1,6.1,0,0,0,1576.08,577.28Z"/><path class="cls-10" d="M1671.43,777.3a7.79,7.79,0,0,1-3.84-1.1l-110.91-64c-4.52-2.61-7.45-9.23-6.53-14.74l7.1-42.32a7.89,7.89,0,0,1,4.06-6.09,6.82,6.82,0,0,1,6.42.54l110.92,64c4.52,2.61,7.45,9.22,6.52,14.74l-7.09,42.32a7.9,7.9,0,0,1-4.07,6.08A6,6,0,0,1,1671.43,777.3Zm-3.06-2.45a5.31,5.31,0,0,0,5,.48,6.38,6.38,0,0,0,3.2-4.94l7.1-42.32c.82-4.93-1.77-10.82-5.77-13.13L1567,650.9a5.3,5.3,0,0,0-5-.48,6.38,6.38,0,0,0-3.19,4.93l-7.09,42.32c-.83,4.93,1.76,10.83,5.77,13.14Z"/><path class="cls-25" d="M1578.84,634.88c2,1.13,3.71.7,4.36-1.06l12.93-35.34c1.48-4,7.52-.39,8.79,5.31l8,35.57a10.34,10.34,0,0,0,4.42,6.37l1.91,1.1c1.84,1.06,3.51.76,4.24-.78l2.64-5.59c1.63-3.46,7.07-.19,8.56,5.14h0a10.29,10.29,0,0,0,4.31,5.91l1.66,1c2,1.16,3.8.69,4.41-1.18l2.4-7.38c1.35-4.16,7.41-.7,8.8,5l8,32.93a10.34,10.34,0,0,0,4.47,6.26Z"/><path class="cls-10" d="M1654.63,760.57a11,11,0,0,1-4.84-6.76l-8-32.92c-.85-3.51-3.69-6.21-5.67-6.28a1.57,1.57,0,0,0-1.63,1.29l-2.4,7.38a3.24,3.24,0,0,1-1.91,2.14,4.24,4.24,0,0,1-3.63-.52l-1.66-1a11.06,11.06,0,0,1-4.67-6.38c-.94-3.38-3.59-5.83-5.47-6a1.52,1.52,0,0,0-1.64,1l-2.63,5.58a3.08,3.08,0,0,1-1.9,1.71,4.3,4.3,0,0,1-3.44-.59l-1.91-1.09a11.14,11.14,0,0,1-4.79-6.88l-8-35.57c-.78-3.51-3.62-6.28-5.63-6.41a1.59,1.59,0,0,0-1.66,1.19l-12.94,35.35a3.21,3.21,0,0,1-1.91,2,4.27,4.27,0,0,1-3.57-.55l.78-1.35a2.73,2.73,0,0,0,2.26.43,1.64,1.64,0,0,0,1-1.08L1581.75,670a3.06,3.06,0,0,1,3.22-2.21c2.62.17,6.08,3.28,7,7.62l8,35.57a9.6,9.6,0,0,0,4.06,5.87l1.9,1.1a3,3,0,0,0,2.2.45,1.58,1.58,0,0,0,.95-.9l2.64-5.58a3.06,3.06,0,0,1,3.17-1.86c2.79.24,5.79,3.37,6.84,7.12a9.55,9.55,0,0,0,4,5.45l1.66,1a2.83,2.83,0,0,0,2.29.42,1.75,1.75,0,0,0,1-1.17l2.4-7.38a3.11,3.11,0,0,1,3-2.37h.14c2.59.1,6.07,3.13,7.12,7.47l8,32.93a9.62,9.62,0,0,0,4.09,5.76Z"/><path class="cls-10" d="M1610.13,541.24a9.71,9.71,0,0,1-4.86-1.38l-86.72-50.06c-5.35-3.09-8.34-10.55-6.67-16.62a9.26,9.26,0,0,1,5.27-6.38,8.9,8.9,0,0,1,7.94.78l86.72,50.06c5.35,3.1,8.35,10.55,6.67,16.62a9.26,9.26,0,0,1-5.27,6.38A8.2,8.2,0,0,1,1610.13,541.24Zm-89.9-73.48a6.61,6.61,0,0,0-2.49.48,7.69,7.69,0,0,0-4.35,5.35c-1.5,5.43,1.16,12.1,5.94,14.86l86.72,50.06a7.34,7.34,0,0,0,6.57.69,7.69,7.69,0,0,0,4.35-5.35c1.51-5.43-1.16-12.1-5.94-14.86l-86.72-50.06A8.17,8.17,0,0,0,1520.23,467.76Z"/></g></g></g></svg>