<svg xmlns="http://www.w3.org/2000/svg" viewBox="0 0 110.89 12.62"><defs><style>.cls-1{fill:#42e8e0;}.cls-2{fill:#fff;}</style></defs><title>Asset 2</title><g id="Layer_2" data-name="Layer 2"><g id="_ÎÓÈ_1" data-name="—ÎÓÈ_1"><path class="cls-1" d="M2.41,6.32v.13L5.65,7.88,5.28,10,0,7.14.31,5.39,6.6,2.53,6.18,4.89Z"/><path class="cls-1" d="M6.47,11.62,12.39,0H14.6l-6,11.62Z"/><path class="cls-1" d="M18.52,6.21V6.09L15.28,4.66l.37-2.13,5.28,2.86-.31,1.75L14.33,10l.42-2.36Z"/><path class="cls-2" d="M29.25,1.3h1.44a4.14,4.14,0,0,1,3.15,1.13,4.58,4.58,0,0,1,1.07,3.25,4.46,4.46,0,0,1-1.09,3.24A4.38,4.38,0,0,1,30.56,10H29.25Zm1.27,7.88a2.88,2.88,0,0,0,2.81-1.32,4.73,4.73,0,0,0,.43-2.2,4.23,4.23,0,0,0-.69-2.61,3.08,3.08,0,0,0-2.54-.89h-.18v7Z"/><path class="cls-2" d="M37.33,9.74a2.75,2.75,0,0,1-1-1.21A4.47,4.47,0,0,1,36,6.81a4.65,4.65,0,0,1,.3-1.71,2.79,2.79,0,0,1,.9-1.22,2.11,2.11,0,0,1,1.32-.47,2.26,2.26,0,0,1,2,.93,4,4,0,0,1,.63,2.29V7H37.09a3.2,3.2,0,0,0,.49,1.68A1.56,1.56,0,0,0,39,9.36a5.07,5.07,0,0,0,1.72-.66l.35.72a2.8,2.8,0,0,1-2.08.76A2.93,2.93,0,0,1,37.33,9.74Zm2.81-3.53c-.08-1.32-.54-2-1.38-2s-1.5.65-1.64,2Z"/><path class="cls-2" d="M45.16,8.93Q45.67,7.54,47,3.61h1.18L45.72,10H44.53L42.05,3.61h1.23Z"/><path class="cls-2" d="M50.54,9.74a2.69,2.69,0,0,1-1-1.21,4.29,4.29,0,0,1-.33-1.72,4.65,4.65,0,0,1,.3-1.71,2.81,2.81,0,0,1,.91-1.22,2.11,2.11,0,0,1,1.32-.47,2.24,2.24,0,0,1,2,.93,4,4,0,0,1,.63,2.29V7H50.29a3.11,3.11,0,0,0,.5,1.68,1.53,1.53,0,0,0,1.38.69,5,5,0,0,0,1.71-.66l.35.72a2.79,2.79,0,0,1-2.08.76A2.89,2.89,0,0,1,50.54,9.74Zm2.8-3.53c-.08-1.32-.54-2-1.38-2s-1.5.65-1.63,2Z"/><path class="cls-2" d="M60.83,10H60a4,4,0,0,1-1.62-.24,1.37,1.37,0,0,1-.44-.31,3.1,3.1,0,0,1-.45-2V1.69H55.54V.87h3V7.45a2.74,2.74,0,0,0,.22,1.43.82.82,0,0,0,.53.3c.22,0,.44,0,.66,0h.94Z"/><path class="cls-2" d="M67,4.35a4,4,0,0,1,.69,2.45A3.79,3.79,0,0,1,67,9.25a2.51,2.51,0,0,1-2,.93,2.71,2.71,0,0,1-1.23-.26,2.41,2.41,0,0,1-.88-.73,4.1,4.1,0,0,1-.67-2.42,3.81,3.81,0,0,1,.74-2.43A2.57,2.57,0,0,1,65,3.42,2.41,2.41,0,0,1,67,4.35Zm-2.11,5a1.51,1.51,0,0,0,1.52-1.11A3.47,3.47,0,0,0,66.67,7a8.06,8.06,0,0,0,0-1,2.58,2.58,0,0,0-.51-1.3,1.39,1.39,0,0,0-1.18-.5,1.49,1.49,0,0,0-1.49,1.13,4,4,0,0,0-.21,1.28A4.43,4.43,0,0,0,63.6,8.6,1.34,1.34,0,0,0,64.93,9.36Z"/><path class="cls-2" d="M71.77,10.18a2.12,2.12,0,0,1-1.1-.28,2,2,0,0,1-.73-.74V12.5l-1.07.12v-9h1.07v.88a2.33,2.33,0,0,1,.75-.78,2,2,0,0,1,1.06-.29A2.33,2.33,0,0,1,74,4.73a4.32,4.32,0,0,1,.42,2,4,4,0,0,1-.89,2.79A2.27,2.27,0,0,1,71.77,10.18ZM69.93,6.79c0,1.71.6,2.57,1.8,2.57s1.63-.86,1.63-2.57a3.33,3.33,0,0,0-.44-2,1.42,1.42,0,0,0-1.2-.56c-1,0-1.58.57-1.74,1.73A6.56,6.56,0,0,0,69.93,6.79Z"/><path class="cls-2" d="M76.94,9.74a2.75,2.75,0,0,1-1-1.21,4.29,4.29,0,0,1-.32-1.72,4.65,4.65,0,0,1,.3-1.71,2.79,2.79,0,0,1,.9-1.22,2.11,2.11,0,0,1,1.32-.47,2.23,2.23,0,0,1,2,.93,3.93,3.93,0,0,1,.64,2.29V7H76.69a3.2,3.2,0,0,0,.5,1.68,1.56,1.56,0,0,0,1.38.69,5.07,5.07,0,0,0,1.72-.66l.35.72a2.8,2.8,0,0,1-2.08.76A2.93,2.93,0,0,1,76.94,9.74Zm2.81-3.53c-.08-1.32-.54-2-1.39-2s-1.49.65-1.63,2Z"/><path class="cls-2" d="M84.33,10H83.26V3.61h.87l.09,1.19a2.68,2.68,0,0,1,1-1,2.91,2.91,0,0,1,1.45-.35h.52v1h-.67a2.43,2.43,0,0,0-1.63.51,2,2,0,0,0-.59,1.54Z"/><path class="cls-1" d="M93.13,10l.61-3.41H91.58L91,10h-2.1l1.49-8.46h2.1L91.89,4.9H94l.58-3.32h2.1L95.23,10Z"/><path class="cls-1" d="M102.57,10h-2L100.75,9h-.12a2,2,0,0,1-1.89,1.21,1.83,1.83,0,0,1-2-2,3.69,3.69,0,0,1,.06-.71l.7-4h2.08L99,7.2a2.06,2.06,0,0,0,0,.44.83.83,0,0,0,.88.86c.58,0,1-.38,1.18-1.16l.67-3.82h2.07Z"/><path class="cls-1" d="M106.33,8.84h-.14L106,10h-2.16l1.58-9h2.18l-.64,3.61h.13a1.89,1.89,0,0,1,1.81-1.28,1.94,1.94,0,0,1,2,2.07,4.55,4.55,0,0,1-.07.76l-.19,1.08c-.32,1.81-1.23,2.83-2.54,2.83A1.58,1.58,0,0,1,106.33,8.84Zm2.17-1.47.18-1a2.28,2.28,0,0,0,0-.45.89.89,0,0,0-.94-.88,1.18,1.18,0,0,0-1.14,1.09l-.18,1a2.22,2.22,0,0,0,0,.45.9.9,0,0,0,1,.88A1.17,1.17,0,0,0,108.5,7.37Z"/></g></g></svg>