<svg xmlns="http://www.w3.org/2000/svg" viewBox="0 0 110.85 14.15"><defs><style>.cls-1,.cls-3{fill:#fff;}.cls-1{opacity:0.2;}.cls-2{fill:#42e8e0;}.cls-4{fill:#bcbeff;}</style></defs><title>Asset 1</title><g id="Layer_2" data-name="Layer 2"><g id="_ÎÓÈ_1" data-name="—ÎÓÈ_1"><rect class="cls-1" x="87.07" width="23.78" height="14.15"/><path class="cls-2" d="M2.41,7.52v.12L5.65,9.07,5.28,11.2,0,8.34.31,6.58,6.6,3.73,6.18,6.09Z"/><path class="cls-2" d="M6.47,12.81,12.39,1.19H14.6l-6,11.62Z"/><path class="cls-2" d="M18.52,7.4V7.28L15.28,5.85l.37-2.12,5.28,2.85-.31,1.76L14.33,11.2l.42-2.37Z"/><path class="cls-3" d="M29.25,2.49h1.44a4.11,4.11,0,0,1,3.15,1.14,4.54,4.54,0,0,1,1.07,3.24,4.42,4.42,0,0,1-1.09,3.24,4.34,4.34,0,0,1-3.26,1.12H29.25Zm1.27,7.89a2.89,2.89,0,0,0,2.81-1.33,4.73,4.73,0,0,0,.43-2.2,4.18,4.18,0,0,0-.69-2.6,3.05,3.05,0,0,0-2.54-.9h-.18v7Z"/><path class="cls-3" d="M37.33,10.93a2.7,2.7,0,0,1-1-1.21A4.38,4.38,0,0,1,36,8a4.67,4.67,0,0,1,.3-1.72,2.85,2.85,0,0,1,.9-1.22,2.11,2.11,0,0,1,1.32-.47,2.24,2.24,0,0,1,2,.94,4,4,0,0,1,.63,2.29v.35H37.09a3.26,3.26,0,0,0,.49,1.69,1.56,1.56,0,0,0,1.38.69,4.93,4.93,0,0,0,1.72-.67l.35.73a3.19,3.19,0,0,1-3.7.31ZM40.14,7.4c-.08-1.31-.54-2-1.38-2s-1.5.66-1.64,2Z"/><path class="cls-3" d="M45.16,10.12c.34-.92,1-2.7,1.88-5.32h1.18l-2.5,6.43H44.53L42.05,4.8h1.23Z"/><path class="cls-3" d="M50.54,10.93a2.64,2.64,0,0,1-1-1.21A4.21,4.21,0,0,1,49.21,8a4.67,4.67,0,0,1,.3-1.72,2.87,2.87,0,0,1,.91-1.22,2.11,2.11,0,0,1,1.32-.47,2.22,2.22,0,0,1,2,.94,4,4,0,0,1,.63,2.29v.35H50.29a3.18,3.18,0,0,0,.5,1.69,1.53,1.53,0,0,0,1.38.69,4.83,4.83,0,0,0,1.71-.67l.35.73a3.17,3.17,0,0,1-3.69.31Zm2.8-3.53c-.08-1.31-.54-2-1.38-2s-1.5.66-1.63,2Z"/><path class="cls-3" d="M60.83,11.23H60A4.2,4.2,0,0,1,58.36,11a1.55,1.55,0,0,1-.44-.31,3.14,3.14,0,0,1-.45-2V2.88H55.54V2.06h3V8.64a2.69,2.69,0,0,0,.22,1.43.74.74,0,0,0,.53.3,4.87,4.87,0,0,0,.66,0h.94Z"/><path class="cls-3" d="M67,5.55A4,4,0,0,1,67.73,8,3.78,3.78,0,0,1,67,10.44a2.49,2.49,0,0,1-2,.94,2.71,2.71,0,0,1-1.23-.27,2.3,2.3,0,0,1-.88-.72A4.11,4.11,0,0,1,62.15,8a3.8,3.8,0,0,1,.74-2.42A2.55,2.55,0,0,1,65,4.61,2.39,2.39,0,0,1,67,5.55Zm-2.11,5a1.51,1.51,0,0,0,1.52-1.12,3.38,3.38,0,0,0,.22-1.22,8.24,8.24,0,0,0,0-1,2.58,2.58,0,0,0-.51-1.3,1.42,1.42,0,0,0-1.18-.5,1.49,1.49,0,0,0-1.49,1.14,3.85,3.85,0,0,0-.21,1.27,4.43,4.43,0,0,0,.37,1.95A1.35,1.35,0,0,0,64.93,10.56Z"/><path class="cls-3" d="M71.77,11.38a2.12,2.12,0,0,1-1.1-.29,2,2,0,0,1-.73-.74V13.7l-1.07.12v-9h1.07v.89a2.33,2.33,0,0,1,.75-.78,1.93,1.93,0,0,1,1.06-.3A2.35,2.35,0,0,1,74,5.92a4.38,4.38,0,0,1,.42,2,3.94,3.94,0,0,1-.89,2.79A2.28,2.28,0,0,1,71.77,11.38ZM69.93,8q0,2.58,1.8,2.58c1.09,0,1.63-.86,1.63-2.58a3.36,3.36,0,0,0-.44-2,1.44,1.44,0,0,0-1.2-.56c-1,0-1.58.58-1.74,1.73A6.81,6.81,0,0,0,69.93,8Z"/><path class="cls-3" d="M76.94,10.93a2.7,2.7,0,0,1-1-1.21A4.21,4.21,0,0,1,75.62,8a4.67,4.67,0,0,1,.3-1.72,2.85,2.85,0,0,1,.9-1.22,2.11,2.11,0,0,1,1.32-.47,2.21,2.21,0,0,1,2,.94,3.91,3.91,0,0,1,.64,2.29v.35H76.69a3.27,3.27,0,0,0,.5,1.69,1.56,1.56,0,0,0,1.38.69,4.93,4.93,0,0,0,1.72-.67l.35.73a3.19,3.19,0,0,1-3.7.31ZM79.75,7.4c-.08-1.31-.54-2-1.39-2s-1.49.66-1.63,2Z"/><path class="cls-3" d="M84.33,11.23H83.26V4.8h.87L84.22,6a2.75,2.75,0,0,1,1-1,3,3,0,0,1,1.45-.35h.52v1h-.67a2.43,2.43,0,0,0-1.63.51,2,2,0,0,0-.59,1.55Z"/><path class="cls-4" d="M90.26,11.23H89.17V2.49h1.09V6.22h3.37V2.49h1.1v8.74h-1.1V7.12H90.26Z"/><path class="cls-4" d="M101.64,9.15c0,1.48-.83,2.23-2.49,2.23s-2.48-.75-2.48-2.23V4.8h1.06V9.24a1.33,1.33,0,0,0,.34,1,2,2,0,0,0,2.16,0,1.29,1.29,0,0,0,.34-1V4.8h1.07Z"/><path class="cls-4" d="M104.22,5.69a2.12,2.12,0,0,1,2-1.08,2.09,2.09,0,0,1,1.9.94,4.27,4.27,0,0,1,.61,2.35,4,4,0,0,1-.88,2.8,2.26,2.26,0,0,1-1.73.68,1.85,1.85,0,0,1-1.09-.27,3.41,3.41,0,0,1-.76-.76v.88h-1.06v-9l1.07-.12Zm0,3.09a2.52,2.52,0,0,0,.49,1.3,1.48,1.48,0,0,0,1.2.47,1.44,1.44,0,0,0,1.46-1.12,4,4,0,0,0,.19-1.24,8.33,8.33,0,0,0,0-1,2.51,2.51,0,0,0-.46-1.3A1.36,1.36,0,0,0,106,5.43a1.49,1.49,0,0,0-1.61,1.27,5,5,0,0,0-.12,1.12A8.28,8.28,0,0,0,104.26,8.78Z"/></g></g></svg>